<?xml version="1.0" encoding="utf-8"?>
<!-- Generator: Adobe Illustrator 21.0.0, SVG Export Plug-In . SVG Version: 6.00 Build 0)  -->
<svg version="1.1" id="Calque_1" xmlns="http://www.w3.org/2000/svg" xmlns:xlink="http://www.w3.org/1999/xlink" x="0px" y="0px"
	 viewBox="0 0 480 480" style="enable-background:new 0 0 480 480;" xml:space="preserve">
<style type="text/css">
	.st0{fill:#CFF09E;}
	.st1{fill:#A8DBA8;}
	.st2{fill:#79BD9A;}
	.st3{fill:#3B8686;}
</style>
<path class="st0" d="M80,128V24H40C22.3,24,8,38.3,8,56v240h464v-64H184C126.6,232,80,185.4,80,128z"/>
<path class="st1" d="M8,296h464v32c0,17.7-14.3,32-32,32H40c-17.7,0-32-14.3-32-32V296z"/>
<path class="st1" d="M128,408h224c26.5,0,48,21.5,48,48H80C80,429.5,101.5,408,128,408z"/>
<path class="st1" d="M320,408H160l16-48h128L320,408z"/>
<path class="st2" d="M96,120l41.6-24C124.4,73,95,65.1,72,78.4c-23,13.2-30.9,42.6-17.6,65.6c13.3,23,42.6,30.8,65.6,17.6
	c7.8-4.5,14.1-11.1,18.3-19L96,120z"/>
<path class="st1" d="M194.3,142.5c7.8-14.6,7.5-32.1-0.7-46.5L152,120L194.3,142.5z"/>
<path class="st2" d="M192,200h32v48h-32V200z"/>
<path class="st2" d="M256,168h32v80h-32V168z"/>
<path class="st2" d="M320,184h32v64h-32V184z"/>
<path class="st2" d="M384,136h32v112h-32V136z"/>
<g>
	<path class="st3" d="M440,0H40C17.9,0,0,19.2,0,42.9v291.4c0,23.7,17.9,42.9,40,42.9h124.9l-10.6,34.3H128c-30.9,0-56,26.9-56,60
		c0,4.7,3.6,8.6,8,8.6h320c4.4,0,8-3.8,8-8.6c0-33.1-25.1-60-56-60h-26.2l-10.6-34.3H440c22.1,0,40-19.2,40-42.9V42.9
		C480,19.2,462.1,0,440,0z M16,42.9c0-14.2,10.7-25.7,24-25.7h400c13.3,0,24,11.5,24,25.7v248.6H16V42.9z M391.2,462.9H88.8
		c3.8-20,20.2-34.3,39.2-34.3h224C371,428.6,387.4,442.9,391.2,462.9z M308.9,411.4H171.1l10.6-34.3h116.5L308.9,411.4z M464,334.3
		c0,14.2-10.7,25.7-24,25.7H40c-13.3,0-24-11.5-24-25.7v-25.7h448V334.3z"/>
	<path class="st3" d="M424,334.3c0,4.7-3.6,8.6-8,8.6s-8-3.8-8-8.6c0-4.7,3.6-8.6,8-8.6S424,329.6,424,334.3z"/>
	<path class="st3" d="M392,334.3c0,4.7-3.6,8.6-8,8.6s-8-3.8-8-8.6c0-4.7,3.6-8.6,8-8.6S392,329.6,392,334.3z"/>
	<path class="st3" d="M142.1,128l-29.6-17.1l29.1-17.9c1.8-1.2,3.1-3,3.7-5.2c0.6-2.2,0.3-4.5-0.8-6.5C128.7,53.3,95,44.1,68.6,60.4
		c-26.3,16.3-35.7,52.2-21.1,80.8c7.4,13.8,19.6,23.9,34,27.9c14.3,4.1,29.6,2,42.5-6c9.1-5.6,16.5-13.9,21.4-23.8
		C147.3,135.2,145.9,130.2,142.1,128z M116,148.5c-14.6,9-32.8,7.3-45.7-4.3c-12.9-11.6-17.6-30.6-11.9-47.5
		C64.2,79.8,79.2,68.6,96,68.6c11.5,0,22.4,5.2,30,14.4l-34,21c-2.5,1.5-4,4.4-4,7.5c0.1,3.1,1.7,5.9,4.2,7.4l34.6,19.7
		C123.8,142.5,120.2,145.9,116,148.5z"/>
	<path class="st3" d="M194.3,144.1c0.8,0.1,1.6,0.1,2.4,0c2-0.7,3.7-2.2,4.7-4.2c9-18.3,8.7-40.2-1-58.1c-2.2-4.1-7.1-5.5-10.9-3.2
		L148,104.3c-2.4,1.5-3.9,4.2-4,7.1c0.1,3.1,1.7,5.9,4.2,7.4l42.3,24.2C191.7,143.6,193,144,194.3,144.1z M168.5,111.4l21.4-13.2
		c2.6,8.3,2.8,17.3,0.4,25.7L168.5,111.4z"/>
	<path class="st3" d="M224,188.6h-32c-4.4,0-8,3.8-8,8.6v51.4c0,4.7,3.6,8.6,8,8.6h32c4.4,0,8-3.8,8-8.6v-51.4
		C232,192.4,228.4,188.6,224,188.6z M216,240h-16v-34.3h16V240z"/>
	<path class="st3" d="M288,154.3h-32c-4.4,0-8,3.8-8,8.6v85.7c0,4.7,3.6,8.6,8,8.6h32c4.4,0,8-3.8,8-8.6v-85.7
		C296,158.1,292.4,154.3,288,154.3z M280,240h-16v-68.6h16V240z"/>
	<path class="st3" d="M352,171.4h-32c-4.4,0-8,3.8-8,8.6v68.6c0,4.7,3.6,8.6,8,8.6h32c4.4,0,8-3.8,8-8.6V180
		C360,175.3,356.4,171.4,352,171.4z M344,240h-16v-51.4h16V240z"/>
	<path class="st3" d="M416,120h-32c-4.4,0-8,3.8-8,8.6v120c0,4.7,3.6,8.6,8,8.6h32c4.4,0,8-3.8,8-8.6v-120
		C424,123.8,420.4,120,416,120z M408,240h-16V137.1h16V240z"/>
	<path class="st3" d="M96,205.7H72c-4.4,0-8,3.8-8,8.6c0,4.7,3.6,8.6,8,8.6h24c4.4,0,8-3.8,8-8.6C104,209.6,100.4,205.7,96,205.7z"
		/>
	<path class="st3" d="M88,240H72c-4.4,0-8,3.8-8,8.6s3.6,8.6,8,8.6h16c4.4,0,8-3.8,8-8.6S92.4,240,88,240z"/>
	<path class="st3" d="M416,42.9h-96c-4.4,0-8,3.8-8,8.6s3.6,8.6,8,8.6h96c4.4,0,8-3.8,8-8.6S420.4,42.9,416,42.9z"/>
	<path class="st3" d="M416,77.1h-48c-4.4,0-8,3.8-8,8.6s3.6,8.6,8,8.6h48c4.4,0,8-3.8,8-8.6S420.4,77.1,416,77.1z"/>
</g>
</svg>
