<?xml version="1.0" encoding="utf-8"?>
<!-- Generator: Adobe Illustrator 21.0.0, SVG Export Plug-In . SVG Version: 6.00 Build 0)  -->
<svg version="1.1" id="Calque_1" xmlns="http://www.w3.org/2000/svg" xmlns:xlink="http://www.w3.org/1999/xlink" x="0px" y="0px"
	 viewBox="0 0 512 512" style="enable-background:new 0 0 512 512;" xml:space="preserve">
<style type="text/css">
	.st0{fill:#A8DBA8;}
	.st1{fill:#79BD9A;}
	.st2{fill:#CFF09E;}
	.st3{fill:#3B8686;}
</style>
<path class="st0" d="M213.3,221.9c-9.4,0-17.1-7.6-17.1-17.1v-85.3H42.7c-18.9,0-34.1,15.3-34.1,34.1v110.9
	c0,18.9,15.3,34.1,34.1,34.1h187.7c18.9,0,34.1-15.3,34.1-34.1v-42.7H213.3z M136.5,238.9c-14.1,0-25.6-11.5-25.6-25.6
	c0-14.1,11.5-25.6,25.6-25.6s25.6,11.5,25.6,25.6C162.1,227.5,150.7,238.9,136.5,238.9z"/>
<path class="st1" d="M341.3,256h17.1c14.1,0,25.6,11.5,25.6,25.6v34.1c0,14.1-11.5,25.6-25.6,25.6h-17.1
	c-14.1,0-25.6-11.5-25.6-25.6v-34.1C315.7,267.5,327.2,256,341.3,256z"/>
<path class="st0" d="M59.7,341.3h170.7c9.4,0,17.1,7.6,17.1,17.1v68.3c0,9.4-7.6,17.1-17.1,17.1H59.7c-9.4,0-17.1-7.6-17.1-17.1
	v-68.3C42.7,349,50.3,341.3,59.7,341.3z"/>
<path class="st2" d="M421.3,384H315.7c-9.4,0-17.1,7.6-17.1,17.1v85.3c0,9.4,7.6,17.1,17.1,17.1h170.7c9.4,0,17.1-7.6,17.1-17.1
	v-85.3c0-9.4-7.6-17.1-17.1-17.1h-20.6"/>
<path class="st1" d="M315.7,384h34.1v119.5h-34.1c-9.4,0-17.1-7.6-17.1-17.1v-85.3C298.7,391.6,306.3,384,315.7,384z"/>
<path class="st0" d="M298.7,422.4h51.2v42.7h-51.2V422.4z"/>
<path class="st2" d="M230.4,196.3c-4.7,0-8.5-3.8-8.5-8.5v-78.4c10.2-3.6,17-13.2,17.1-24V68.3c0-10.8-6.9-20.4-17.1-24V8.5h-8.5
	c-9.4,0-17.1,7.6-17.1,17.1v179.2c0,9.4,7.6,17.1,17.1,17.1h273.1c9.4,0,17.1-7.6,17.1-17.1v-8.5H230.4z"/>
<path class="st0" d="M452.3,128c0,9.4-7.6,17.1-17.1,17.1c-9.4,0-17.1-7.6-17.1-17.1s7.6-17.1,17.1-17.1
	C444.6,110.9,452.3,118.6,452.3,128z"/>
<path class="st1" d="M469.3,59.7c0,9.4-7.6,17.1-17.1,17.1c-9.4,0-17.1-7.6-17.1-17.1s7.6-17.1,17.1-17.1
	C461.7,42.7,469.3,50.3,469.3,59.7z"/>
<path class="st1" d="M298.7,68.3c0,9.4-7.6,17.1-17.1,17.1s-17.1-7.6-17.1-17.1s7.6-17.1,17.1-17.1S298.7,58.8,298.7,68.3z"/>
<path class="st1" d="M281.6,85.3c9.4,0,17.1,7.6,17.1,17.1v34.1h-34.1v-34.1C264.5,93,272.2,85.3,281.6,85.3z"/>
<path class="st0" d="M439.1,415.8l60.3-71.9c6.1-7.2,5.1-18-2.1-24.1c-7.2-6.1-18-5.1-24.1,2.1L413,393.9l-14.4,43.7L439.1,415.8z"
	/>
<path class="st0" d="M213.3,51.2H93.9v34.1h119.5c9.4,0,17.1-7.6,17.1-17.1S222.8,51.2,213.3,51.2z"/>
<path class="st1" d="M59.7,76.8V59.7c0-4.7,3.8-8.5,8.5-8.5h25.6v34.1H68.3C63.5,85.3,59.7,81.5,59.7,76.8z"/>
<g>
	<path class="st3" d="M136.5,179.2c-18.9,0-34.1,15.3-34.1,34.1c0,18.9,15.3,34.1,34.1,34.1s34.1-15.3,34.1-34.1
		C170.7,194.5,155.4,179.2,136.5,179.2z M136.5,230.4c-9.4,0-17.1-7.6-17.1-17.1c0-9.4,7.6-17.1,17.1-17.1s17.1,7.6,17.1,17.1
		C153.6,222.8,146,230.4,136.5,230.4z"/>
	<path class="st3" d="M341.3,349.9h17.1c18.9,0,34.1-15.3,34.1-34.1v-34.1c0-18.9-15.3-34.1-34.1-34.1h-17.1
		c-18.9,0-34.1,15.3-34.1,34.1v34.1C307.2,334.6,322.5,349.9,341.3,349.9z M324.3,281.6c0-9.4,7.6-17.1,17.1-17.1v17.1
		c0,4.7,3.8,8.5,8.5,8.5c4.7,0,8.5-3.8,8.5-8.5v-17.1c9.4,0,17.1,7.6,17.1,17.1v34.1c0,9.4-7.6,17.1-17.1,17.1h-17.1
		c-9.4,0-17.1-7.6-17.1-17.1V281.6z"/>
	<path class="st3" d="M230.4,332.8H59.7c-14.1,0-25.6,11.5-25.6,25.6v68.3c0,14.1,11.5,25.6,25.6,25.6h170.7
		c14.1,0,25.6-11.5,25.6-25.6v-68.3C256,344.3,244.5,332.8,230.4,332.8z M238.9,426.7c0,4.7-3.8,8.5-8.5,8.5H59.7
		c-4.7,0-8.5-3.8-8.5-8.5v-68.3c0-4.7,3.8-8.5,8.5-8.5h170.7c4.7,0,8.5,3.8,8.5,8.5V426.7z"/>
	<path class="st3" d="M136.5,366.9h-17.1c-4.7,0-8.5,3.8-8.5,8.5c0,4.7,3.8,8.5,8.5,8.5h17.1c4.7,0,8.5-3.8,8.5-8.5
		C145.1,370.8,141.2,366.9,136.5,366.9z"/>
	<path class="st3" d="M187.7,366.9h-17.1c-4.7,0-8.5,3.8-8.5,8.5c0,4.7,3.8,8.5,8.5,8.5h17.1c4.7,0,8.5-3.8,8.5-8.5
		C196.3,370.8,192.4,366.9,187.7,366.9z"/>
	<path class="st3" d="M136.5,401.1h-17.1c-4.7,0-8.5,3.8-8.5,8.5c0,4.7,3.8,8.5,8.5,8.5h17.1c4.7,0,8.5-3.8,8.5-8.5
		C145.1,404.9,141.2,401.1,136.5,401.1z"/>
	<path class="st3" d="M179.2,409.6c0,4.7-3.8,8.5-8.5,8.5s-8.5-3.8-8.5-8.5c0-4.7,3.8-8.5,8.5-8.5S179.2,404.9,179.2,409.6z"/>
	<path class="st3" d="M213.3,409.6c0,4.7-3.8,8.5-8.5,8.5s-8.5-3.8-8.5-8.5c0-4.7,3.8-8.5,8.5-8.5S213.3,404.9,213.3,409.6z"/>
	<path class="st3" d="M93.9,375.5c0,4.7-3.8,8.5-8.5,8.5c-4.7,0-8.5-3.8-8.5-8.5c0-4.7,3.8-8.5,8.5-8.5
		C90,366.9,93.9,370.8,93.9,375.5z"/>
	<path class="st3" d="M93.9,409.6c0,4.7-3.8,8.5-8.5,8.5c-4.7,0-8.5-3.8-8.5-8.5c0-4.7,3.8-8.5,8.5-8.5
		C90,401.1,93.9,404.9,93.9,409.6z"/>
	<path class="st3" d="M486.4,375.5h-2.3l21.9-26.1c9.1-10.8,7.7-27-3.2-36.1c-10.8-9.1-27-7.7-36.1,3.2l-49.5,59H315.7
		c-14.1,0-25.6,11.5-25.6,25.6v85.3c0,14.1,11.5,25.6,25.6,25.6h170.7c14.1,0,25.6-11.5,25.6-25.6v-85.3
		C512,386.9,500.5,375.5,486.4,375.5z M479.9,327.5c3-3.6,8.4-4.1,12-1.1c3.6,3,4.1,8.4,1.1,12l-59.3,70.6l-20.3,10.9l7.2-21.8
		L479.9,327.5z M307.2,430.9h34.1v25.6h-34.1V430.9z M315.7,392.5h25.6v21.3h-34.1v-12.8C307.2,396.4,311,392.5,315.7,392.5z
		 M315.7,494.9c-4.7,0-8.5-3.8-8.5-8.5v-12.8h34.1v21.3H315.7z M494.9,486.4c0,4.7-3.8,8.5-8.5,8.5h-128V392.5h46.1l-13.9,42.3
		c-1.1,3.3-0.1,7,2.6,9.2c2.7,2.2,6.4,2.6,9.5,1l40.5-21.7c1-0.5,1.8-1.2,2.5-2l24.1-28.8h16.6c4.7,0,8.5,3.8,8.5,8.5V486.4z"/>
	<path class="st3" d="M486.4,0H213.3c-14.1,0-25.6,11.5-25.6,25.6v17.1H68.3c-9.4,0-17.1,7.6-17.1,17.1v17.1
		c0,9.4,7.6,17.1,17.1,17.1h119.5v17.1H42.7C19.1,111,0,130.1,0,153.6v110.9c0,23.6,19.1,42.6,42.7,42.7h187.7
		c23.6,0,42.6-19.1,42.7-42.7v-34.1h213.3c14.1,0,25.6-11.5,25.6-25.6V25.6C512,11.5,500.5,0,486.4,0z M68.3,59.7h17.1v17.1H68.3
		V59.7z M102.4,59.7h110.9c4.7,0,8.5,3.8,8.5,8.5s-3.8,8.5-8.5,8.5H102.4V59.7z M213.3,93.9c14.1,0,25.6-11.5,25.6-25.6
		s-11.5-25.6-25.6-25.6h-8.5V25.6c0-4.7,3.8-8.5,8.5-8.5h128v17.1h-8.5c-4.7,0-8.5,3.8-8.5,8.5s3.8,8.5,8.5,8.5h8.5v17.1h-8.5
		c-4.7,0-8.5,3.8-8.5,8.5s3.8,8.5,8.5,8.5h8.5v17.1h-8.5c-4.7,0-8.5,3.8-8.5,8.5c0,4.7,3.8,8.5,8.5,8.5h8.5v17.1h-8.5
		c-4.7,0-8.5,3.8-8.5,8.5s3.8,8.5,8.5,8.5h8.5v17.1h-8.5c-4.7,0-8.5,3.8-8.5,8.5s3.8,8.5,8.5,8.5h8.5v25.6h-128
		c-4.7,0-8.5-3.8-8.5-8.5V93.9H213.3z M256,264.5c0,14.1-11.5,25.6-25.6,25.6H42.7c-14.1,0-25.6-11.5-25.6-25.6V153.6
		c0-14.1,11.5-25.6,25.6-25.6h145.1v76.8c0,14.1,11.5,25.6,25.6,25.6H256V264.5z M494.9,204.8c0,4.7-3.8,8.5-8.5,8.5h-128v-25.6h8.5
		c4.7,0,8.5-3.8,8.5-8.5s-3.8-8.5-8.5-8.5h-8.5v-17.1h8.5c4.7,0,8.5-3.8,8.5-8.5s-3.8-8.5-8.5-8.5h-8.5v-17.1h8.5
		c4.7,0,8.5-3.8,8.5-8.5c0-4.7-3.8-8.5-8.5-8.5h-8.5V85.3h8.5c4.7,0,8.5-3.8,8.5-8.5s-3.8-8.5-8.5-8.5h-8.5V51.2h8.5
		c4.7,0,8.5-3.8,8.5-8.5s-3.8-8.5-8.5-8.5h-8.5V17.1h128c4.7,0,8.5,3.8,8.5,8.5V204.8z"/>
	<path class="st3" d="M435.2,102.4c-12.5,0-23.1,8.9-25.2,21.2c-2.1,12.3,4.9,24.3,16.7,28.4v18.6c0,4.7,3.8,8.5,8.5,8.5
		c4.7,0,8.5-3.8,8.5-8.5V152c11.7-4.1,18.8-16.1,16.7-28.4C458.3,111.3,447.7,102.4,435.2,102.4z M435.2,136.5
		c-4.7,0-8.5-3.8-8.5-8.5s3.8-8.5,8.5-8.5c4.7,0,8.5,3.8,8.5,8.5S439.9,136.5,435.2,136.5z"/>
	<path class="st3" d="M452.3,34.1c-14.1,0-25.6,11.5-25.6,25.6s11.5,25.6,25.6,25.6c14.1,0,25.6-11.5,25.6-25.6
		S466.4,34.1,452.3,34.1z M452.3,68.3c-4.7,0-8.5-3.8-8.5-8.5s3.8-8.5,8.5-8.5c4.7,0,8.5,3.8,8.5,8.5S457,68.3,452.3,68.3z"/>
	<path class="st3" d="M264.5,145.1h34.1c4.7,0,8.5-3.8,8.5-8.5v-34.1c0-6.3-2.4-12.4-6.7-17.1c9.3-10.2,8.8-26-1.1-35.6
		c-9.9-9.6-25.7-9.6-35.6,0c-9.9,9.6-10.4,25.4-1.1,35.6c-4.3,4.7-6.6,10.8-6.7,17.1v34.1C256,141.2,259.8,145.1,264.5,145.1z
		 M290.1,128h-17.1v-25.6c0-4.7,3.8-8.5,8.5-8.5c4.7,0,8.5,3.8,8.5,8.5V128z M281.6,59.7c4.7,0,8.5,3.8,8.5,8.5s-3.8,8.5-8.5,8.5
		c-4.7,0-8.5-3.8-8.5-8.5S276.9,59.7,281.6,59.7z"/>
	<path class="st3" d="M264.5,179.2h34.1c4.7,0,8.5-3.8,8.5-8.5s-3.8-8.5-8.5-8.5h-34.1c-4.7,0-8.5,3.8-8.5,8.5
		S259.8,179.2,264.5,179.2z"/>
</g>
</svg>
