<?xml version="1.0" encoding="utf-8"?>
<!-- Generator: Adobe Illustrator 21.0.0, SVG Export Plug-In . SVG Version: 6.00 Build 0)  -->
<svg version="1.1" id="Calque_1" xmlns="http://www.w3.org/2000/svg" xmlns:xlink="http://www.w3.org/1999/xlink" x="0px" y="0px"
	 viewBox="0 0 512 512" style="enable-background:new 0 0 512 512;" xml:space="preserve">
<style type="text/css">
	.st0{fill:#CFF09E;}
	.st1{fill:#A8DBA8;}
	.st2{fill:#79BD9A;}
	.st3{fill:#3B8686;}
</style>
<path class="st0" d="M93.9,213.3V110.9H8.5v392.5h494.9v-85.3H298.7C185.6,418.1,93.9,326.4,93.9,213.3z"/>
<path class="st1" d="M8.5,8.5h494.9v102.4H8.5V8.5z"/>
<path class="st2" d="M256,42.7h213.3v34.1H256V42.7z"/>
<path class="st0" d="M76.8,59.7c0,9.4-7.6,17.1-17.1,17.1s-17.1-7.6-17.1-17.1s7.6-17.1,17.1-17.1S76.8,50.3,76.8,59.7z"/>
<path class="st0" d="M145.1,59.7c0,9.4-7.6,17.1-17.1,17.1s-17.1-7.6-17.1-17.1s7.6-17.1,17.1-17.1S145.1,50.3,145.1,59.7z"/>
<path class="st0" d="M213.3,59.7c0,9.4-7.6,17.1-17.1,17.1s-17.1-7.6-17.1-17.1s7.6-17.1,17.1-17.1S213.3,50.3,213.3,59.7z"/>
<path class="st1" d="M99.5,391.9l36.2-36.2l-24.2-24.1l-60.3,60.3l60.3,60.3l24.2-24.1L99.5,391.9z"/>
<path class="st1" d="M293,391.9l-36.2-36.2l24.2-24.1l60.3,60.3L281,452.2L256.9,428L293,391.9z"/>
<path class="st1" d="M188.3,312.2l33.6,5.9l-26.7,151.3l-33.6-5.9L188.3,312.2z"/>
<path class="st2" d="M435.2,230.4c0.1-1.6,0.1-3.2,0-4.8l27.2-15.7l-25.6-44.4l-27.2,15.7c-2.7-1.8-5.6-3.4-8.5-4.8v-31.4h-51.2
	v31.4c-3,1.3-5.8,2.9-8.5,4.8l-27-15.7l-25.6,44.4l27,15.7c-0.3,3.2-0.3,6.4,0,9.6l-27,15.7l25.6,44.4l27-15.7
	c2.7,1.8,5.6,3.4,8.5,4.8v31.4h51.2v-31.4c3-1.3,5.8-2.9,8.5-4.8l27.2,15.7l25.6-44.4l-27.2-15.7C435.3,233.6,435.3,232,435.2,230.4
	z M375.5,256c-14.1,0-25.6-11.5-25.6-25.6c0-14.1,11.5-25.6,25.6-25.6c14.1,0,25.6,11.5,25.6,25.6C401.1,244.5,389.6,256,375.5,256z
	"/>
<g>
	<path class="st3" d="M469.3,205.7l-25.6-44.4c-1.1-1.9-3-3.4-5.2-3.9c-2.2-0.6-4.5-0.3-6.5,0.9l-22.4,13.1v-26.2
		c0-4.7-3.8-8.5-8.5-8.5h-51.2c-4.7,0-8.5,3.8-8.5,8.5v26.2l-22.7-13.1c-2-1.1-4.3-1.4-6.5-0.9c-2.2,0.6-4.1,2-5.2,3.9l-25.6,44.4
		c-2.3,4.1-0.9,9.3,3.2,11.6l22.7,13.1l-22.7,13.1c-4,2.4-5.3,7.6-2.9,11.6l25.6,44.4c1.1,1.9,3,3.4,5.2,3.9
		c2.2,0.6,4.5,0.3,6.5-0.9l22.4-13.1v26.2c0,4.7,3.8,8.5,8.5,8.5h51.2c4.7,0,8.5-3.8,8.5-8.5v-26.2l22.7,13.1c2,1.1,4.3,1.4,6.5,0.9
		c2.1-0.6,3.9-2,5-3.9l25.6-44.4c2.3-4.1,0.9-9.3-3.2-11.6l-22.4-13.1l22.7-13.1C470.4,214.8,471.7,209.7,469.3,205.7z M430.4,218.2
		c-2.9,1.6-4.5,4.8-4.3,8.1c0.4,2.8,0.4,5.7,0,8.5c-0.3,3.3,1.4,6.5,4.3,8.1l19.8,11.4l-17.1,29.5l-19.8-11.4c-2.8-1.7-6.3-1.7-9,0
		c-2.3,1.5-4.7,2.9-7.2,4.1c-3,1.4-4.9,4.4-4.9,7.7v23h-33.9v-22.9c0-3.3-1.9-6.3-4.9-7.7c-2.5-1.2-4.9-2.6-7.2-4.1
		c-2.8-1.7-6.3-1.7-9,0L317.5,284l-17.1-29.5l19.8-11.4c2.9-1.6,4.5-4.8,4.3-8.1c-0.4-2.8-0.4-5.7,0-8.5c0.3-3.3-1.4-6.5-4.3-8.1
		l-19.8-11.4l17.1-29.5l19.8,11.4c2.9,1.6,6.4,1.4,9-0.4c2.3-1.5,4.7-2.9,7.2-4.1c3-1.4,4.9-4.4,4.9-7.7v-23h34.1v22.9
		c0,3.3,1.9,6.3,4.9,7.7c2.5,1.2,4.9,2.6,7.2,4.1c2.7,1.9,6.2,2,9,0.4l19.8-11.4l17.1,29.5L430.4,218.2z"/>
	<path class="st3" d="M375.5,196.3c-18.9,0-34.1,15.3-34.1,34.1s15.3,34.1,34.1,34.1s34.1-15.3,34.1-34.1S394.3,196.3,375.5,196.3z
		 M375.5,247.5c-9.4,0-17.1-7.6-17.1-17.1c0-9.4,7.6-17.1,17.1-17.1c9.4,0,17.1,7.6,17.1,17.1C392.5,239.8,384.9,247.5,375.5,247.5z
		"/>
	<path class="st3" d="M141.7,349.9l-24.2-24.1c-1.6-1.6-3.8-2.5-6.1-2.5c-2.3,0-4.4,0.9-6.1,2.5l-60.3,60.1
		c-1.6,1.6-2.5,3.8-2.5,6.1s0.9,4.5,2.5,6.1l60.3,60.3c1.6,1.6,3.8,2.5,6.1,2.5c2.3,0,4.4-0.9,6.1-2.5l24.2-24.1
		c3.3-3.3,3.3-8.7,0-12l-30.2-30.2l30.2-30.1C144.9,358.4,144.9,353.2,141.7,349.9z M93.9,385.8c-1.6,1.6-2.5,3.8-2.5,6.1
		s0.9,4.5,2.5,6.1l30.2,30.1L112,440.1l-48.7-48.3l48.3-48.3l12.1,12.1L93.9,385.8z"/>
	<path class="st3" d="M287.1,325.5c-1.6-1.6-3.8-2.5-6.1-2.5c-2.3,0-4.5,0.9-6.1,2.5l-24.1,24.4c-1.6,1.6-2.5,3.8-2.5,6.1
		c0,2.3,0.9,4.5,2.5,6.1l30.2,30.1l-30.2,30.2c-3.3,3.3-3.3,8.7,0,12l24.1,24.1c1.6,1.6,3.8,2.5,6.1,2.5c2.3,0,4.4-0.9,6.1-2.5
		l60.3-60.3c1.6-1.6,2.5-3.8,2.5-6.1s-0.9-4.5-2.5-6.1L287.1,325.5z M281,440.1L268.9,428l30.2-30.1c1.6-1.6,2.5-3.8,2.5-6.1
		s-0.9-4.5-2.5-6.1l-30.2-30.1l12.1-12.1l48.3,48.3L281,440.1z"/>
	<path class="st3" d="M223.3,309.7l-33.6-6c-4.6-0.8-9,2.4-9.8,7l-26.3,151.2c-0.8,4.6,2.3,9.1,6.9,9.9l33.2,6.1
		c0.5,0.1,1,0.1,1.5,0c4.2,0.1,7.8-2.9,8.5-7.1l26.6-151.2c0.4-2.2-0.1-4.5-1.4-6.4C227.7,311.3,225.6,310,223.3,309.7z
		 M188.2,459.4l-17.1-3L194.9,322L212,325L188.2,459.4z"/>
	<path class="st3" d="M59.7,204.8c4.7,0,8.5-3.8,8.5-8.5v-34.1c0-4.7-3.8-8.5-8.5-8.5s-8.5,3.8-8.5,8.5v34.1
		C51.2,201,55,204.8,59.7,204.8z"/>
	<path class="st3" d="M110.9,204.8c14.1,0,25.6-11.5,25.6-25.6s-11.5-25.6-25.6-25.6s-25.6,11.5-25.6,25.6S96.8,204.8,110.9,204.8z
		 M110.9,170.7c4.7,0,8.5,3.8,8.5,8.5c0,4.7-3.8,8.5-8.5,8.5s-8.5-3.8-8.5-8.5C102.4,174.5,106.2,170.7,110.9,170.7z"/>
	<path class="st3" d="M162.1,204.8c4.7,0,8.5-3.8,8.5-8.5v-34.1c0-4.7-3.8-8.5-8.5-8.5c-4.7,0-8.5,3.8-8.5,8.5v34.1
		C153.6,201,157.4,204.8,162.1,204.8z"/>
	<path class="st3" d="M213.3,153.6c-14.1,0-25.6,11.5-25.6,25.6s11.5,25.6,25.6,25.6c14.1,0,25.6-11.5,25.6-25.6
		S227.5,153.6,213.3,153.6z M213.3,187.7c-4.7,0-8.5-3.8-8.5-8.5c0-4.7,3.8-8.5,8.5-8.5c4.7,0,8.5,3.8,8.5,8.5
		C221.9,183.9,218,187.7,213.3,187.7z"/>
	<path class="st3" d="M59.7,273.1c4.7,0,8.5-3.8,8.5-8.5v-34.1c0-4.7-3.8-8.5-8.5-8.5s-8.5,3.8-8.5,8.5v34.1
		C51.2,269.2,55,273.1,59.7,273.1z"/>
	<path class="st3" d="M230.4,221.9c-4.7,0-8.5,3.8-8.5,8.5v34.1c0,4.7,3.8,8.5,8.5,8.5c4.7,0,8.5-3.8,8.5-8.5v-34.1
		C238.9,225.7,235.1,221.9,230.4,221.9z"/>
	<path class="st3" d="M179.2,273.1c14.1,0,25.6-11.5,25.6-25.6s-11.5-25.6-25.6-25.6s-25.6,11.5-25.6,25.6S165.1,273.1,179.2,273.1z
		 M179.2,238.9c4.7,0,8.5,3.8,8.5,8.5c0,4.7-3.8,8.5-8.5,8.5c-4.7,0-8.5-3.8-8.5-8.5C170.7,242.8,174.5,238.9,179.2,238.9z"/>
	<path class="st3" d="M503.5,0H8.5C3.8,0,0,3.8,0,8.5v494.9c0,4.7,3.8,8.5,8.5,8.5h494.9c4.7,0,8.5-3.8,8.5-8.5V8.5
		C512,3.8,508.2,0,503.5,0z M17.1,17.1h477.9v85.3H17.1V17.1z M17.1,494.9V119.5h477.9v375.5H17.1z"/>
	<path class="st3" d="M469.3,34.1H256c-4.7,0-8.5,3.8-8.5,8.5v34.1c0,4.7,3.8,8.5,8.5,8.5h213.3c4.7,0,8.5-3.8,8.5-8.5V42.7
		C477.9,38,474,34.1,469.3,34.1z M460.8,68.3H264.5V51.2h196.3V68.3z"/>
	<path class="st3" d="M59.7,34.1c-14.1,0-25.6,11.5-25.6,25.6s11.5,25.6,25.6,25.6s25.6-11.5,25.6-25.6S73.9,34.1,59.7,34.1z
		 M59.7,68.3c-4.7,0-8.5-3.8-8.5-8.5s3.8-8.5,8.5-8.5s8.5,3.8,8.5,8.5S64.4,68.3,59.7,68.3z"/>
	<path class="st3" d="M196.3,34.1c-14.1,0-25.6,11.5-25.6,25.6s11.5,25.6,25.6,25.6s25.6-11.5,25.6-25.6S210.4,34.1,196.3,34.1z
		 M196.3,68.3c-4.7,0-8.5-3.8-8.5-8.5s3.8-8.5,8.5-8.5c4.7,0,8.5,3.8,8.5,8.5S201,68.3,196.3,68.3z"/>
	<path class="st3" d="M128,34.1c-14.1,0-25.6,11.5-25.6,25.6s11.5,25.6,25.6,25.6s25.6-11.5,25.6-25.6S142.1,34.1,128,34.1z
		 M128,68.3c-4.7,0-8.5-3.8-8.5-8.5s3.8-8.5,8.5-8.5c4.7,0,8.5,3.8,8.5,8.5S132.7,68.3,128,68.3z"/>
	<path class="st3" d="M110.9,273.1c14.1,0,25.6-11.5,25.6-25.6s-11.5-25.6-25.6-25.6s-25.6,11.5-25.6,25.6S96.8,273.1,110.9,273.1z
		 M110.9,238.9c4.7,0,8.5,3.8,8.5,8.5c0,4.7-3.8,8.5-8.5,8.5s-8.5-3.8-8.5-8.5C102.4,242.8,106.2,238.9,110.9,238.9z"/>
</g>
</svg>
