<?xml version="1.0" encoding="UTF-8" standalone="no"?>
<!-- Created with Inkscape (http://www.inkscape.org/) -->

<svg
   xmlns:dc="http://purl.org/dc/elements/1.1/"
   xmlns:cc="http://creativecommons.org/ns#"
   xmlns:rdf="http://www.w3.org/1999/02/22-rdf-syntax-ns#"
   xmlns:svg="http://www.w3.org/2000/svg"
   xmlns="http://www.w3.org/2000/svg"
   xmlns:sodipodi="http://sodipodi.sourceforge.net/DTD/sodipodi-0.dtd"
   xmlns:inkscape="http://www.inkscape.org/namespaces/inkscape"
   version="1.1"
   id="svg3612"
   xml:space="preserve"
   width="666.66699"
   height="223.164"
   viewBox="0 0 666.667 223.164"
   sodipodi:docname="logo.svg"
   inkscape:export-filename="C:\Users\josephkakou\Desktop\LOGO code web.png"
   inkscape:export-xdpi="96"
   inkscape:export-ydpi="96"
   inkscape:version="0.92.4 (5da689c313, 2019-01-14)"><metadata
     id="metadata3618"><rdf:RDF><cc:Work
         rdf:about=""><dc:format>image/svg+xml</dc:format><dc:type
           rdf:resource="http://purl.org/dc/dcmitype/StillImage" /><dc:title></dc:title></cc:Work></rdf:RDF></metadata><defs
     id="defs3616"><linearGradient
       x1="0"
       y1="0"
       x2="1"
       y2="0"
       gradientUnits="userSpaceOnUse"
       gradientTransform="matrix(325.21902,0,0,-325.21902,130.22568,93.140388)"
       spreadMethod="pad"
       id="linearGradient3644"><stop
         style="stop-opacity:1;stop-color:#3fa8bf"
         offset="0"
         id="stop3640" /><stop
         style="stop-opacity:1;stop-color:#0085a0"
         offset="1"
         id="stop3642" /></linearGradient><linearGradient
       x1="0"
       y1="0"
       x2="1"
       y2="0"
       gradientUnits="userSpaceOnUse"
       gradientTransform="matrix(325.21902,0,0,-325.21902,44.555298,406.85959)"
       spreadMethod="pad"
       id="linearGradient3664"><stop
         style="stop-opacity:1;stop-color:#0085a0"
         offset="0"
         id="stop3660" /><stop
         style="stop-opacity:1;stop-color:#3fa8bf"
         offset="1"
         id="stop3662" /></linearGradient><clipPath
       clipPathUnits="userSpaceOnUse"
       id="clipPath3674"><path
         d="M 0,500 H 500 V 0 H 0 Z"
         id="path3672"
         inkscape:connector-curvature="0" /></clipPath><clipPath
       clipPathUnits="userSpaceOnUse"
       id="clipPath3898"><path
         d="M 59.2291,395.9 H 425.758 V 123.991 H 59.2291 Z"
         id="path3896"
         inkscape:connector-curvature="0" /></clipPath><linearGradient
       x1="0"
       y1="0"
       x2="1"
       y2="0"
       gradientUnits="userSpaceOnUse"
       gradientTransform="matrix(97.170196,0,0,-97.170196,44.555298,207.16481)"
       spreadMethod="pad"
       id="linearGradient3976"><stop
         style="stop-opacity:1;stop-color:#3fa8bf"
         offset="0"
         id="stop3972" /><stop
         style="stop-opacity:1;stop-color:#0085a0"
         offset="1"
         id="stop3974" /></linearGradient><linearGradient
       x1="0"
       y1="0"
       x2="1"
       y2="0"
       gradientUnits="userSpaceOnUse"
       gradientTransform="matrix(97.170196,0,0,-97.170196,358.27451,292.83517)"
       spreadMethod="pad"
       id="linearGradient3996"><stop
         style="stop-opacity:1;stop-color:#0085a0"
         offset="0"
         id="stop3992" /><stop
         style="stop-opacity:1;stop-color:#3fa8bf"
         offset="1"
         id="stop3994" /></linearGradient><clipPath
       clipPathUnits="userSpaceOnUse"
       id="clipPath4006"><path
         d="M 0,500 H 500 V 0 H 0 Z"
         id="path4004"
         inkscape:connector-curvature="0" /></clipPath><clipPath
       clipPathUnits="userSpaceOnUse"
       id="clipPath4036"><path
         d="M 0,500 H 500 V 0 H 0 Z"
         id="path4034"
         inkscape:connector-curvature="0" /></clipPath></defs><sodipodi:namedview
     pagecolor="#ffffff"
     bordercolor="#666666"
     borderopacity="1"
     objecttolerance="10"
     gridtolerance="10"
     guidetolerance="10"
     inkscape:pageopacity="0"
     inkscape:pageshadow="2"
     inkscape:window-width="1920"
     inkscape:window-height="1017"
     id="namedview3614"
     showgrid="false"
     inkscape:zoom="0.70799998"
     inkscape:cx="354.79772"
     inkscape:cy="257.35702"
     inkscape:window-x="-8"
     inkscape:window-y="-8"
     inkscape:window-maximized="1"
     inkscape:current-layer="g3620" /><g
     id="g3620"
     inkscape:groupmode="layer"
     inkscape:label="1920153"
     transform="matrix(1.3333333,0,0,-1.3333333,0,223.16398)"><path
   d="M 1.0593221,-6.3559926e-6 H 501.05932 V 167.37286 H 1.0593221 Z"
   style="fill:#ffdd55;fill-opacity:1;fill-rule:nonzero;stroke:none;stroke-width:0.57857215"
   id="path3622"
   inkscape:connector-curvature="0" /><g
   id="g3668"
   style="opacity:1;fill:#000000"
   transform="matrix(1,0,0,0.33474572,1.0593221,-6.3559927e-6)"><g
     id="g3670"
     clip-path="url(#clipPath3674)"
     style="fill:#000000"><g
       id="g3676"
       transform="translate(387.8408,131.8748)"
       style="fill:#000000"><path
         d="M 0,0 V 0.001 0 L 0.001,0.001 C 0.007,0.016 0.013,0.03 0.02,0.044 L 0.025,0.136 C 0.008,0.122 -0.008,0.107 -0.025,0.093 -0.016,0.063 -0.008,0.032 0,0.001 Z"
         style="fill:#000000;fill-opacity:1;fill-rule:nonzero;stroke:none"
         id="path3678"
         inkscape:connector-curvature="0" /></g><g
       id="g3680"
       transform="translate(387.2814,124.7955)"
       style="fill:#000000"><path
         d="m 0,0 c -0.251,-2.32 -0.517,-4.673 -0.877,-7.345 -3.043,-0.367 -5.303,-0.604 -7.851,-0.843 -0.273,-0.438 -0.542,-0.869 -0.81,-1.298 -0.265,-0.435 -0.54,-0.858 -0.831,-1.27 -0.577,-0.837 -1.162,-1.687 -1.782,-2.587 1.303,-0.244 2.194,-0.41 3.284,-0.614 -0.699,-2.309 -1.617,-4.659 -2.143,-6.944 -0.228,-1.028 -0.414,-1.78 -0.458,-2.362 -0.044,-0.582 0.047,-0.986 0.329,-1.267 0.282,-0.281 0.753,-0.439 1.47,-0.53 0.724,-0.098 1.669,-0.1 2.907,-0.07 1.367,1.544 2.757,3.107 4.336,4.439 0.395,0.334 0.802,0.651 1.223,0.954 0.407,0.316 0.83,0.615 1.27,0.891 0.881,0.554 1.832,1.022 2.881,1.375 0.956,0.323 2.278,2.066 3.107,3.256 1.636,2.543 3.218,5.088 4.76,7.619 1.479,2.588 2.87,5.207 4.246,7.788 0.358,0.65 0.637,1.354 0.875,2.049 0.239,0.696 0.432,1.387 0.574,2.053 0.553,2.631 0.653,5.02 0.5,7.342 -0.179,2.343 -0.548,4.573 -0.83,6.806 -0.298,2.355 -1.743,3.42 -3.524,3.35 C 10.869,22.72 8.768,21.512 7.022,19.219 5.392,17.243 4.213,14.809 3.027,12.498 2.063,10.764 1.393,8.934 0.579,7.124 L 0.362,3.591 C 0.254,2.398 0.128,1.205 0,0"
         style="fill:#000000;fill-opacity:1;fill-rule:nonzero;stroke:none"
         id="path3682"
         inkscape:connector-curvature="0" /></g><g
       id="g3684"
       transform="translate(362.6415,94.615)"
       style="fill:#000000"><path
         d="m 0,0 c -1.022,0.601 -2.26,1.059 -3.608,1.358 -1.367,0.325 -2.842,0.486 -4.314,0.437 -1.646,-0.056 -3.068,-0.718 -4.28,-1.696 -1.217,-0.968 -2.276,-2.171 -3.083,-3.441 1.234,-2.131 2.319,-4.005 3.223,-5.566 0.821,0.291 1.61,0.571 2.376,0.842 0.767,0.272 1.516,0.531 2.222,0.832 1.43,0.583 2.798,1.141 4.166,1.698 l 1.477,0.05 c 0.36,0.957 1.052,2.166 1.495,3.266 C 0.125,-1.128 0.387,-0.227 0,0"
         style="fill:#000000;fill-opacity:1;fill-rule:nonzero;stroke:none"
         id="path3686"
         inkscape:connector-curvature="0" /></g><g
       id="g3688"
       transform="translate(187.6032,77.1596)"
       style="fill:#000000"><path
         d="m 0,0 c -1.049,0.214 -2.066,0.496 -3.081,0.749 -1.017,0.257 -2.018,0.511 -2.991,0.757 -1.752,-1.537 -2.125,-3.349 -1.255,-5.077 0.871,-1.71 2.952,-3.419 6.098,-4.361 1.614,-0.511 3.646,-0.418 5.255,0.057 1.607,0.46 2.815,1.36 2.829,2.323 C 6.864,-3.56 3.521,-0.777 0,0"
         style="fill:#000000;fill-opacity:1;fill-rule:nonzero;stroke:none"
         id="path3690"
         inkscape:connector-curvature="0" /></g><g
       id="g3692"
       transform="translate(422.0958,174.4604)"
       style="fill:#000000"><path
         d="m 0,0 c -0.812,-1.571 -1.43,-3.292 -1.862,-5.06 -0.11,-0.441 -0.199,-0.89 -0.294,-1.331 -0.102,-0.438 -0.192,-0.877 -0.27,-1.316 -0.156,-0.878 -0.265,-1.755 -0.326,-2.617 -0.121,-1.723 -0.051,-3.387 0.22,-4.87 0.279,-1.486 0.682,-2.75 1.367,-3.733 0.384,0.457 0.749,0.92 1.093,1.387 0.339,0.469 0.631,0.958 0.918,1.441 0.566,0.969 1.052,1.944 1.455,2.91 0.403,0.966 0.722,1.921 0.956,2.851 0.117,0.465 0.214,0.922 0.286,1.373 0.058,0.458 0.095,0.907 0.11,1.346 C 3.781,-4.104 2.553,-1.305 0,0"
         style="fill:#000000;fill-opacity:1;fill-rule:nonzero;stroke:none"
         id="path3694"
         inkscape:connector-curvature="0" /></g><g
       id="g3696"
       transform="translate(370.7508,109.5457)"
       style="fill:#000000"><path
         d="m 0,0 -0.216,0.764 c -2.307,-0.666 -4.646,-1.252 -7.577,-2.007 0.737,-0.964 1.111,-1.454 1.515,-1.983 -1.081,-1.376 -2.517,-2.486 -3.094,-3.692 -0.698,-1.443 -0.044,-3.128 1.81,-2.074 0.835,0.474 1.65,0.846 2.454,1.151 0.787,0.328 1.557,0.597 2.329,0.827 1.541,0.463 3.075,0.793 4.652,1.272 0.369,0.112 0.788,0.867 1.272,1.427 -2.162,0.43 -4.196,0.86 -6.502,1.384 C -1.717,-1.502 -0.849,-0.763 0,0"
         style="fill:#000000;fill-opacity:1;fill-rule:nonzero;stroke:none"
         id="path3698"
         inkscape:connector-curvature="0" /></g><g
       id="g3700"
       transform="translate(414.542,144.8406)"
       style="fill:#000000"><path
         d="m 0,0 c -0.989,-1.401 -1.299,-3.197 -1.696,-5.993 1.13,0.545 2.087,1.028 2.825,1.596 0.748,0.561 1.346,1.161 1.851,1.88 C 3.978,-1.072 4.654,0.829 5.3,3.905 2.598,2.431 0.968,1.415 0,0"
         style="fill:#000000;fill-opacity:1;fill-rule:nonzero;stroke:none"
         id="path3702"
         inkscape:connector-curvature="0" /></g><g
       id="g3704"
       transform="translate(332.5811,414.5515)"
       style="fill:#000000"><path
         d="M 0,0 C 1.189,-0.463 2.287,0.012 4.149,1.078 3.069,2.495 1.78,3.354 0.299,3.862 -0.444,4.111 -1.226,4.294 -2.074,4.378 -2.925,4.452 -3.825,4.464 -4.775,4.44 -2.438,1.909 -1.197,0.451 0,0"
         style="fill:#000000;fill-opacity:1;fill-rule:nonzero;stroke:none"
         id="path3706"
         inkscape:connector-curvature="0" /></g><g
       id="g3708"
       transform="translate(391.802,358.5356)"
       style="fill:#000000"><path
         d="M 0,0 C 0.521,-0.322 1.184,-0.571 1.927,-0.811 2.674,-1.049 3.544,-1.241 4.545,-1.395 4.337,-0.584 4.095,0.166 3.806,0.841 3.515,1.514 3.143,2.085 2.734,2.585 1.908,3.577 0.855,4.222 -0.514,4.411 -1.14,4.497 -1.901,3.343 -1.79,2.567 -1.634,1.477 -1.053,0.634 0,0"
         style="fill:#000000;fill-opacity:1;fill-rule:nonzero;stroke:none"
         id="path3710"
         inkscape:connector-curvature="0" /></g><g
       id="g3712"
       transform="translate(90.2575,336.1178)"
       style="fill:#000000"><path
         d="M 0,0 C 0.585,0.479 1.02,0.948 1.319,1.439 1.616,1.931 1.777,2.444 1.856,2.984 2.013,4.064 1.836,5.256 1.735,6.601 0.408,5.778 -0.783,5.007 -1.597,4.063 -2.003,3.59 -2.316,3.075 -2.503,2.491 -2.681,1.901 -2.713,1.23 -2.598,0.47 -2.485,-0.264 -0.733,-0.582 0,0"
         style="fill:#000000;fill-opacity:1;fill-rule:nonzero;stroke:none"
         id="path3714"
         inkscape:connector-curvature="0" /></g><g
       id="g3716"
       transform="translate(178.591,392.9961)"
       style="fill:#000000"><path
         d="m 0,0 c -0.482,-0.3 -0.969,-0.661 -1.521,-1.036 2.164,0.175 3.286,0.137 3.994,0.601 C 3.189,0.013 3.521,0.881 4.225,2.636 3.162,1.973 2.281,1.424 1.382,0.863 0.934,0.583 0.482,0.301 0,0"
         style="fill:#000000;fill-opacity:1;fill-rule:nonzero;stroke:none"
         id="path3718"
         inkscape:connector-curvature="0" /></g><g
       id="g3720"
       transform="translate(174.7926,81.6381)"
       style="fill:#000000"><path
         d="M 0,0 C 0.471,1.987 0.73,3.076 0.988,4.165 L -0.734,4.832 C -2.113,4.057 -2.561,3.008 0,0"
         style="fill:#000000;fill-opacity:1;fill-rule:nonzero;stroke:none"
         id="path3722"
         inkscape:connector-curvature="0" /></g><g
       id="g3724"
       transform="translate(73.9552,269.9302)"
       style="fill:#000000"><path
         d="M 0,0 C 1.932,0.058 2.979,0.09 4.026,0.122 3.134,2.523 2.125,3.035 0,0"
         style="fill:#000000;fill-opacity:1;fill-rule:nonzero;stroke:none"
         id="path3726"
         inkscape:connector-curvature="0" /></g><g
       id="g3728"
       transform="translate(119.0378,119.6459)"
       style="fill:#000000"><path
         d="m 0,0 c -0.667,0.547 -1.51,0.748 -2.814,1.335 0.495,-1.386 0.615,-2.564 1.149,-2.973 0.561,-0.44 1.592,-0.379 2.143,-0.148 C 0.698,-1.693 0.36,-0.29 0,0"
         style="fill:#000000;fill-opacity:1;fill-rule:nonzero;stroke:none"
         id="path3730"
         inkscape:connector-curvature="0" /></g><g
       id="g3732"
       transform="translate(77.8825,285.8313)"
       style="fill:#000000"><path
         d="m 0,0 c -0.693,-1.269 -1.181,-1.869 -1.326,-2.546 -0.079,-0.41 0.4,-1.382 0.522,-1.317 0.465,0.243 1.098,0.709 1.258,1.262 C 0.619,-2.076 0.259,-1.332 0,0"
         style="fill:#000000;fill-opacity:1;fill-rule:nonzero;stroke:none"
         id="path3734"
         inkscape:connector-curvature="0" /></g><g
       id="g3736"
       transform="translate(337.828,91.4846)"
       style="fill:#000000"><path
         d="M 0,0 C -0.017,-0.04 0.83,-0.195 0.89,-0.13 1.614,0.679 2.27,1.496 2.919,2.338 2.362,2.426 1.787,2.552 1.226,2.659 0.81,1.777 0.374,0.891 0,0"
         style="fill:#000000;fill-opacity:1;fill-rule:nonzero;stroke:none"
         id="path3738"
         inkscape:connector-curvature="0" /></g><g
       id="g3740"
       transform="translate(172.9195,417.2484)"
       style="fill:#000000"><path
         d="M 0,0 C 0.624,0.396 1.085,0.987 1.847,1.722 0.949,1.855 0.184,2.073 0.054,1.957 -0.496,1.461 -0.952,0.863 -1.206,0.31 -1.263,0.183 -0.217,-0.138 0,0"
         style="fill:#000000;fill-opacity:1;fill-rule:nonzero;stroke:none"
         id="path3742"
         inkscape:connector-curvature="0" /></g><g
       id="g3744"
       transform="translate(403.4824,169.4733)"
       style="fill:#000000"><path
         d="m 0,0 -0.969,-1.814 -1.947,-3.619 c -1.256,-2.433 -2.729,-4.746 -4.124,-7.096 l -0.523,0.707 c 0.075,0.209 0.15,0.42 0.225,0.633 1.331,2.073 2.685,4.14 3.881,6.298 l 1.998,3.473 0.994,1.744 0.92,1.781 0.437,-0.255 z m -58.459,-62.615 c -0.304,-0.292 -0.609,-0.584 -0.916,-0.878 -0.005,-0.005 -0.029,-0.005 -0.059,-0.003 0.49,0.686 1.045,1.295 1.662,1.833 l 0.182,-0.032 c -0.29,-0.306 -0.572,-0.622 -0.869,-0.92 m -9.552,-6.121 c 0.231,0.13 0.464,0.259 0.696,0.388 0.017,0.001 0.033,0.002 0.05,0.004 0.602,0.067 1.211,0.143 1.832,0.223 -0.712,-0.478 -1.435,-0.941 -2.148,-1.417 z m -52.507,-35.262 c -0.628,-0.406 -1.196,-0.821 -1.698,-1.243 -0.818,0.027 -1.605,0.052 -2.361,0.076 -1.205,0.054 -2.327,0.06 -3.43,0.154 -1.096,0.09 -2.158,0.178 -3.221,0.265 l 2.395,0.428 1.199,0.213 1.188,0.263 c 0.414,0.094 0.828,0.189 1.241,0.286 0.21,0.011 0.42,0.022 0.629,0.038 0.037,0.003 0.075,0.058 0.111,0.138 0.916,0.22 1.827,0.448 2.73,0.694 1.376,0.375 1.695,1.098 2.277,1.797 0.588,0.68 1.414,1.411 3.823,1.801 0.483,0.08 0.979,0.205 1.484,0.361 0.234,0.02 0.482,0.041 0.746,0.064 -2.764,-2.177 -4.824,-3.907 -7.113,-5.335 m -25.364,7.595 c -0.645,-0.568 -1.359,-1.139 -2.178,-1.609 -3.211,-1.901 -7.621,-1.376 -8.187,0.88 -0.46,1.772 -1.636,3.086 -4.753,3.978 -1.657,-0.424 -2.911,-0.742 -3.872,-0.934 -0.961,-0.149 -1.629,-0.187 -2.122,-0.092 -0.987,0.19 -1.277,0.913 -1.839,2.36 -0.409,0.063 -0.811,0.114 -1.207,0.158 -0.417,0.664 -0.848,1.429 -1.44,2.264 4.176,-1.234 6.941,-1.307 8.543,0.685 0.431,0.542 0.566,1.3 0.475,2.119 1.312,-0.033 2.687,-0.219 4.17,-0.631 -1.826,-0.675 -2.986,-1.103 -4.133,-1.528 2.743,-2.022 4.293,-3.043 6.193,-3.205 1.896,-0.086 4.179,0.66 8.387,2.193 1.671,0.686 3.982,0.947 5.948,1.398 0.309,-1.124 1.169,-1.954 0.628,-2.656 -0.883,-1.143 -1.735,-2.324 -2.74,-3.477 -0.129,-0.002 -0.257,0 -0.386,0.007 l -0.223,-0.679 c -0.393,-0.417 -0.81,-0.829 -1.264,-1.231 m -19.193,-0.228 c 3.749,0.729 4.925,0.026 4.054,-1.876 -1.266,0.579 -2.521,1.141 -4.054,1.876 m 3.122,-3.969 c 5.13,0.809 4.726,-1.307 6.109,-2.292 2.066,0.288 4.073,0.567 5.985,0.833 -0.734,-0.427 -1.376,-0.858 -1.88,-1.35 -1.019,-0.992 -2.17,-1.721 -3.426,-2.228 -0.238,-0.087 -0.481,-0.166 -0.727,-0.239 -0.666,-0.078 -1.338,-0.144 -2.014,-0.202 -1.392,-0.12 -2.802,-0.203 -4.221,-0.275 -0.977,-0.069 -1.958,-0.101 -2.941,-0.12 -0.359,0.035 -0.721,0.074 -1.086,0.107 -0.814,0.082 -1.64,0.166 -2.477,0.25 0.116,0.938 0.169,1.678 0.256,2.341 0.557,0.052 1.136,0.11 1.75,0.176 0.932,0.099 1.938,0.205 3.043,0.406 -0.584,1.179 -1.149,2.321 -1.704,3.512 1.146,-0.408 2.5,-1.037 3.333,-0.919 m -3.721,1.095 c -0.536,0.068 -1.073,0.136 -1.615,0.205 0.071,0.193 0.15,0.384 0.236,0.572 0.412,-0.227 0.868,-0.486 1.379,-0.777 m -25.91,18.127 c 0.259,0.53 0.504,1.031 0.747,1.526 0.745,-0.215 1.493,-0.426 2.243,-0.63 0.108,-0.347 0.265,-0.662 0.466,-0.947 -1.159,0.034 -2.328,0.089 -3.456,0.051 m -29.684,7.212 c -0.078,1.406 -0.152,2.869 3.512,2.283 1.175,-2.114 -1.01,-2.368 -3.512,-2.283 m 2.316,-4.031 c -0.407,0.105 -0.818,0.212 -1.226,0.318 -0.401,0.124 -0.798,0.258 -1.172,0.425 -0.888,0.397 -1.698,0.908 -2.538,1.369 l 0.226,0.358 2.423,-0.925 1.212,-0.462 c 0.404,-0.153 0.819,-0.275 1.229,-0.414 z m -13.508,6.33 c -1.023,0.332 -2.05,0.645 -3.038,1.039 -1.993,0.751 -3.977,1.511 -5.961,2.306 -1.21,0.514 -2.339,1.412 -3.449,2.094 0.19,-0.011 0.381,-0.021 0.572,-0.032 2.55,-0.768 5.166,-1.226 7.704,-1.59 0.407,-0.064 0.815,-0.12 1.223,-0.17 0.651,-0.376 1.22,-0.707 1.716,-1.001 1.1,-0.608 1.867,-1.031 2.417,-1.407 1.104,-0.746 1.366,-1.241 1.901,-2.235 -1.036,0.334 -2.063,0.666 -3.085,0.996 m -29.481,26.651 c -1.075,0.743 -2.061,1.598 -3.088,2.403 l 0.565,0.322 c 0.924,-0.762 1.812,-1.569 2.781,-2.275 z m -10.588,8.714 c -1.056,0.668 -2.134,1.308 -3.13,2.031 -1.018,0.709 -2.031,1.414 -3.042,2.117 l -1.522,1.063 -0.761,0.534 -0.732,0.564 0.31,1.032 c 2.316,-0.804 4.452,-2.053 6.51,-3.715 1.346,-1.34 2.716,-2.653 4.108,-3.941 0.485,-0.537 0.969,-1.098 1.454,-1.682 -1.075,0.672 -2.139,1.337 -3.195,1.997 m 1.132,-10.711 -1.674,2.266 -1.577,2.344 1.581,-0.013 0.729,-1.141 c 0.249,-0.375 0.512,-0.734 0.765,-1.103 0.51,-0.733 1.012,-1.469 1.493,-2.205 0.041,-0.062 -0.854,-0.101 -1.317,-0.148 m -10.872,9.455 c -0.547,0.348 -1.066,0.874 -1.577,1.589 -0.504,0.721 -1.034,1.6 -1.494,2.752 0.292,-0.204 0.573,-0.401 0.848,-0.593 0.285,-0.181 0.562,-0.357 0.836,-0.531 0.547,-0.346 1.078,-0.682 1.62,-1.026 1.079,-0.678 2.202,-1.384 3.584,-2.254 -1.512,-0.62 -2.721,-0.634 -3.817,0.063 m -5.238,11.492 -0.725,0.897 -1.448,1.796 c -0.959,1.2 -1.94,2.383 -2.879,3.599 -0.906,1.242 -1.812,2.486 -2.72,3.731 l -1.363,1.871 c -0.465,0.618 -0.86,1.285 -1.295,1.926 -0.168,0.257 -0.338,0.516 -0.507,0.773 0.774,-0.085 1.55,-0.027 2.352,0.173 0.965,0.239 1.924,0.331 2.867,0.253 0.084,-0.007 0.166,-0.017 0.249,-0.026 1.548,-2.235 3.152,-4.422 4.808,-6.563 0.046,-0.337 0.094,-0.674 0.139,-1.016 0.195,-1.354 0.391,-2.719 0.589,-4.093 0.215,-1.38 0.404,-2.814 0.7,-4.185 z m -36.781,58.874 h -10e-4 c 0,0.001 0,0.001 0,0.002 z m 8.353,94.785 c 0.347,-0.194 0.905,-0.353 1.364,-0.603 0.008,0.488 0.006,0.949 0,1.391 0.148,0.08 0.296,0.162 0.445,0.238 0.79,0.414 1.791,0.789 2.588,0.765 -0.935,-2.617 -1.801,-5.263 -2.596,-7.935 -0.497,0.881 -0.895,1.611 -1.251,2.212 -0.467,0.782 -0.858,1.345 -1.228,1.738 -0.497,0.527 -0.956,0.745 -1.504,0.784 0.737,0.494 1.461,0.969 2.182,1.41 m 29.073,53.954 c -0.146,-0.201 -0.292,-0.404 -0.437,-0.605 -0.132,-0.019 -0.264,-0.038 -0.395,-0.057 -0.274,0.037 -0.521,0.07 -0.753,0.101 0.527,0.417 1.014,0.802 1.492,1.181 0.03,-0.204 0.061,-0.411 0.093,-0.62 m -4.287,12.742 c -0.934,-0.486 -1.69,-0.879 -2.447,-1.272 0.212,0.691 0.259,1.597 0.688,2.03 0.579,0.586 1.486,0.895 2.152,1.09 0.124,0.036 -0.207,-0.998 -0.393,-1.848 m -4.89,-10.748 c -0.245,-0.246 -0.488,-0.49 -0.73,-0.733 -0.23,-0.252 -0.458,-0.503 -0.686,-0.753 -0.455,-0.501 -0.907,-0.998 -1.359,-1.495 l -0.738,0.224 c 1.208,2.202 2.547,4.305 4.495,7.337 0.096,0.021 0.193,0.048 0.291,0.081 0.442,0.139 0.912,0.395 1.419,0.738 0.162,-1.051 0.271,-1.703 0.373,-2.328 -1.074,-1.077 -2.085,-2.09 -3.065,-3.071 m 19.917,20.198 0.092,0.082 0.143,-0.161 -0.134,-0.118 c -0.039,0.062 -0.073,0.128 -0.101,0.197 m 7.638,4.194 c 0.674,0.574 1.347,1.154 2.035,1.714 l 2.126,1.606 c 0.057,0.042 0.113,0.083 0.17,0.125 -0.035,-0.101 -0.07,-0.201 -0.105,-0.302 -0.271,-0.796 -0.536,-1.597 -0.799,-2.403 -0.089,-0.036 -0.18,-0.071 -0.267,-0.109 -0.319,-0.145 -0.634,-0.294 -0.948,-0.452 -2.483,-1.246 -3.52,-2.246 -3.363,-3.535 -0.368,0.247 -0.737,0.495 -1.139,0.764 -0.873,-1.313 -1.605,-2.414 -2.292,-3.447 -0.13,0.438 -0.331,0.802 -0.559,0.805 -0.138,0.001 -0.268,0.006 -0.393,0.014 0.49,0.603 1.003,1.181 1.564,1.723 1.299,1.18 2.625,2.345 3.97,3.497 m 8.551,20.106 c -0.259,-0.244 -0.502,-0.48 -0.733,-0.708 l 0.343,0.507 c 0.13,0.068 0.26,0.135 0.39,0.201 m 157.524,30.366 c -1.329,0.417 -1.981,0.622 -2.594,0.815 0.452,1 0.509,0.964 2.594,-0.815 m 1.374,-2.679 c 0.719,-0.07 1.36,-0.246 1.639,-0.52 0.49,-0.485 0.87,-1.024 1.206,-1.594 -0.363,-0.006 -0.728,-0.013 -1.094,-0.02 -0.249,0.087 -0.5,0.171 -0.752,0.253 -0.64,0.18 -1.284,0.354 -1.912,0.559 -0.528,0.174 -1.067,0.337 -1.607,0.499 -0.113,0.195 -0.225,0.376 -0.337,0.546 0.243,0.091 0.495,0.162 0.762,0.204 0.575,0.09 1.371,0.126 2.095,0.073 M 17.647,123.158 c 0.556,0.077 1.138,0.477 1.945,1.243 0.266,-0.893 0.559,-1.903 0.875,-3.055 0.328,1.974 0.558,3.339 0.634,4.465 0.51,-0.971 1.174,-1.906 1.314,-2.895 0.065,-0.471 -0.94,-1.165 -1.543,-1.538 -0.426,-0.264 -0.86,-0.506 -1.299,-0.733 -0.371,-0.089 -0.725,-0.204 -1.052,-0.376 -0.2,-0.106 -0.39,-0.232 -0.567,-0.384 -0.086,-0.037 -0.172,-0.074 -0.258,-0.11 -0.669,-0.278 -1.296,-0.589 -1.843,-1 -0.091,0.559 -0.183,1.117 -0.274,1.676 l -0.442,2.631 -0.225,1.316 -0.027,0.128 c 1.289,-0.972 1.993,-1.474 2.762,-1.368 m -0.316,8.563 c 0.111,0.998 0.244,2.078 0.309,3.302 1.673,-0.362 2.939,-0.646 4.634,-1.07 -0.559,-1.869 -1.022,-3.366 -1.486,-4.833 -0.284,1.146 -0.761,2.504 -1.49,4.558 -0.934,-1.38 -1.405,-2.059 -1.234,-3.59 0.044,-0.469 0.162,-1.015 0.341,-1.684 -0.462,0.16 -0.925,0.318 -1.401,0.478 0.107,0.928 0.212,1.846 0.327,2.839 m 5.774,15.043 c -0.204,-0.829 -0.407,-1.659 -0.612,-2.492 -0.257,-0.901 -0.515,-1.805 -0.775,-2.715 -0.996,3.155 -1.082,3.176 1.387,5.207 m 2.066,4.341 c 0.188,-2.268 0.038,-4.168 -1.931,-4.132 -0.569,2.635 0.676,3.385 1.931,4.132 M -82.432,-80.54 c 0.103,0.07 0.206,0.14 0.31,0.211 -0.064,-0.061 -0.123,-0.118 -0.185,-0.178 -0.042,-0.01 -0.084,-0.021 -0.125,-0.033 m -31.548,-12.111 c 0.956,0.27 1.891,0.456 2.785,0.654 0.18,0.042 0.357,0.08 0.534,0.117 -0.295,-0.45 -0.722,-0.878 -1.308,-1.287 -1.906,-0.464 -3.051,-0.755 -4.193,-1.008 -1.036,-0.23 -2.071,-0.417 -3.976,-0.791 2.205,1.047 4.241,1.789 6.158,2.315 m -18.855,-2.373 c 0.335,-0.242 0.706,-0.517 1.127,-0.828 -0.644,0.033 -1.243,0.063 -1.808,0.092 0.235,0.253 0.461,0.497 0.681,0.736 m -152.22,72.983 c 0.414,-0.418 0.844,-0.821 1.279,-1.219 0.621,-0.733 1.251,-1.458 1.885,-2.178 l -0.16,-0.644 -1.747,1.558 c -0.29,0.261 -0.587,0.517 -0.871,0.784 l -0.835,0.819 z m -30.741,40.915 c 0.024,-0.023 0.047,-0.044 0.07,-0.067 -0.012,0.036 -0.023,0.071 -0.035,0.107 0.205,0.233 0.427,0.473 0.671,0.722 0.626,0.636 0.998,1.317 1.124,2.134 0.196,-0.336 0.404,-0.664 0.638,-0.978 -0.11,0.273 -0.219,0.541 -0.325,0.803 -0.09,0.252 -0.179,0.5 -0.266,0.744 0.013,0.702 -0.125,1.501 -0.418,2.448 -0.424,1.509 -0.54,3.108 -0.506,4.719 1.266,-2.316 1.892,-5 2.916,-7.483 0.485,-1.248 1.01,-2.461 1.664,-3.567 0.326,-0.552 0.685,-1.078 1.086,-1.567 0.388,-0.44 0.817,-0.846 1.286,-1.216 0.008,-0.019 0.016,-0.039 0.024,-0.058 -0.914,-0.534 -1.828,-1.068 -2.812,-1.643 0.021,-0.442 0.042,-0.908 0.065,-1.389 -1.635,-0.881 -3.31,0.343 -4.846,2.509 -0.487,0.666 -0.974,1.416 -1.461,2.207 0.259,0.495 0.636,1.014 1.125,1.575 m 185.838,235.427 c -0.269,-0.019 -0.529,-0.041 -0.789,-0.07 l -1.346,1.456 c 0.772,0.006 1.677,0.178 2.289,-0.022 0.463,-0.156 0.779,-0.48 1.153,-0.84 -0.481,-0.013 -0.961,-0.026 -1.443,-0.039 0.047,-0.169 0.093,-0.33 0.136,-0.485 m 97.925,-47.265 c -0.198,-0.222 -0.401,-0.44 -0.608,-0.649 -0.118,0.217 -0.234,0.432 -0.349,0.647 0.322,0.001 0.64,0.002 0.957,0.002 m 1.816,-2.885 c -0.07,0.023 -0.14,0.046 -0.209,0.068 0.06,0.242 0.12,0.485 0.181,0.731 0.018,-0.265 0.027,-0.531 0.028,-0.799 m 49.256,-92.638 c 0.201,-0.129 0.398,-0.262 0.595,-0.394 0.015,-1.434 0.154,-2.952 0.317,-4.478 0.098,-0.761 0.143,-1.535 0.188,-2.298 -0.603,0.754 -1.203,1.493 -1.786,2.236 0.115,0.311 0.274,0.601 0.497,0.861 -0.566,0.47 -1.079,0.874 -1.595,1.267 -0.05,0.038 -0.1,0.076 -0.151,0.115 -0.017,0.366 -0.04,0.734 -0.078,1.105 -0.053,0.5 -0.105,1.002 -0.157,1.503 0.335,0.368 0.679,0.658 1.049,0.816 0.371,-0.241 0.743,-0.484 1.121,-0.733 m 1.112,-21.489 c -0.199,0.529 -0.399,1.062 -0.603,1.604 -0.328,0.773 -0.662,1.56 -1.002,2.363 -0.242,0.557 -0.489,1.125 -0.739,1.698 0.134,0.315 0.262,0.636 0.389,0.959 0.611,1.564 1.177,3.178 2.072,4.362 0,-0.176 0,-0.353 -0.003,-0.526 -0.048,-1.908 -0.281,-3.584 -1.054,-4.788 1.333,-1.262 1.9,-2.768 2.033,-4.454 -0.367,-0.412 -0.73,-0.816 -1.093,-1.218 M -86.658,-83.393 c 0.085,0.055 0.17,0.112 0.255,0.167 -0.011,-0.01 -0.021,-0.021 -0.032,-0.031 -1.234,-1.192 -2.516,-2.332 -4.417,-2.705 1.355,0.83 2.74,1.678 4.194,2.569 M -217.21,228.74 c 0.819,-0.043 1.844,-0.098 3.092,-0.164 0.575,-0.021 1.21,-0.086 1.891,-0.157 0.414,-0.31 0.85,-0.585 1.372,-0.74 -0.342,-0.144 -0.682,-0.286 -1.018,-0.427 -0.351,-0.149 -0.701,-0.288 -1.042,-0.442 -0.338,-0.162 -0.673,-0.322 -1.004,-0.481 -1.321,-0.633 -2.591,-1.243 -3.827,-1.836 -2.484,-1.127 -4.716,-2.447 -6.96,-3.643 -0.63,0.345 -1.852,1.004 -2.965,1.588 1.366,0.859 2.897,1.823 4.608,2.899 1.707,1.124 3.676,2.183 5.853,3.403 M 20.607,87.088 c 0.079,-0.146 0.162,-0.295 0.246,-0.445 -0.105,-0.466 -0.217,-0.939 -0.335,-1.422 -0.001,0.938 -0.075,1.716 -0.19,2.365 0.092,-0.164 0.185,-0.33 0.279,-0.498 M -136.432,-91.124 c 0.053,0.121 0.11,0.249 0.172,0.389 0.067,-0.118 0.148,-0.233 0.246,-0.343 -0.139,-0.016 -0.278,-0.031 -0.418,-0.046 M 23.919,138.259 c -0.198,1.525 -0.397,3.051 -0.73,5.616 1.882,-2.474 1.769,-4.068 0.73,-5.616 m -172.741,118.752 c 0.435,-0.05 0.868,-0.117 1.298,-0.192 0.099,-0.208 0.23,-0.397 0.403,-0.562 0.486,-0.471 1.284,-0.713 2.529,-0.799 1.03,-0.056 1.861,0.02 2.532,0.258 0,0 0.007,-0.001 0.011,-0.002 1.021,-0.226 1.962,-0.45 2.784,-0.664 0.819,-0.238 1.516,-0.48 2.059,-0.688 -0.745,0.104 -1.486,0.222 -2.233,0.299 -0.748,0.063 -1.495,0.126 -2.241,0.189 -1.492,0.109 -2.98,0.217 -4.465,0.326 -0.742,0.043 -1.48,0.118 -2.222,0.135 -0.741,0.021 -1.482,0.041 -2.221,0.061 -1.151,0.033 -2.298,0.074 -3.442,0.12 1.258,0.466 2.395,1.024 3.375,1.758 0.608,-0.076 1.22,-0.156 1.833,-0.239 M -322.18,30.105 c 1.045,0.689 2.082,1.368 3.135,2.041 1.227,-2.114 1.481,-2.528 0.884,-4.607 -0.166,0.62 -0.331,1.262 -0.466,1.952 -0.657,-0.831 -1.31,-1.404 -1.955,-1.581 -0.542,0.744 -1.07,1.47 -1.598,2.195 M 25.703,90.676 c -0.042,-0.359 -0.084,-0.718 -0.127,-1.08 -0.064,0.182 -0.134,0.362 -0.212,0.538 0.102,0.168 0.215,0.346 0.339,0.542 m -0.248,4.175 c -0.03,0.628 -0.043,1.239 -0.036,1.831 -0.01,0.59 -0.014,1.159 0.011,1.709 0.092,2.199 0.52,4.073 1.372,5.512 -0.218,0.608 -0.435,1.21 -0.649,1.807 -0.115,0.325 -0.232,0.648 -0.354,0.968 0.064,-0.048 0.127,-0.094 0.192,-0.143 -0.111,1.174 -0.218,2.018 -0.294,2.681 0.247,0.316 0.491,0.633 0.736,0.954 0.43,0.569 0.867,1.147 1.322,1.747 -0.035,-0.344 -0.06,-0.693 -0.065,-1.045 -0.046,-2.236 0.464,-4.625 1.532,-7.211 2.021,1.175 3.746,2.681 4.057,5.967 0.535,1.021 1.001,2.012 0.817,2.737 -0.582,2.286 -0.775,4.352 -0.613,6.346 0.098,1.983 0.535,3.893 1.301,5.873 -1.24,-0.112 -2.22,-0.533 -3.03,-1.296 -0.772,-0.729 -1.367,-1.815 -2.142,-2.858 -1.439,3.834 -0.257,4.91 1.209,5.949 0.63,0.444 1.234,0.953 1.856,1.506 0.605,0.557 1.238,1.139 1.918,1.764 -3.483,2.996 -3.469,2.925 -4.648,-0.708 -0.869,-2.653 -2.417,-2.544 -5.263,0.101 0.556,1.908 0.828,2.877 1.583,3.792 0.754,0.918 1.993,1.779 4.453,3.561 -0.918,0.167 -1.394,0.3 -1.866,0.319 -0.461,0.017 -0.906,-0.079 -1.618,-0.153 1.514,3.186 1.508,3.213 0.743,5.979 0.567,1.314 1.11,2.602 1.695,4.022 0.545,1.406 1.121,2.941 1.79,4.781 -2.672,-0.031 -4.441,-0.075 -6.188,-0.125 0.529,1.336 1.08,2.701 1.91,4.968 -1.799,-0.923 -3.008,-1.543 -4.216,-2.163 -0.632,-0.319 -1.272,-0.59 -1.838,-0.415 -0.579,0.171 -1.094,0.779 -1.482,2.232 -0.516,1.923 -1.473,1.957 -2.383,1.808 -0.845,-0.138 -1.597,-0.603 -2.347,-0.906 -0.23,0.376 -0.446,0.729 -0.657,1.075 0.094,1.344 -0.054,2.697 -0.441,4.025 -0.1,0.346 -0.217,0.689 -0.349,1.03 -0.138,0.338 -0.305,0.666 -0.481,0.994 -0.355,0.655 -0.773,1.297 -1.251,1.92 -0.957,1.246 -2.155,2.416 -3.577,3.463 -0.944,-1.094 -1.92,-2.214 -2.999,-3.429 -0.804,1.522 -1.578,3.04 -2.303,4.565 -0.874,1.672 -1.693,3.351 -2.426,5.058 -0.367,0.854 -0.713,1.714 -1.036,2.584 -0.316,0.867 -0.632,1.735 -0.95,2.607 -0.692,1.987 -1.69,4.688 -4.549,5.657 0.408,-2.003 1.344,-4.115 2.431,-6.249 1.126,-2.109 2.219,-4.358 3.165,-6.464 -1,1.135 -1.929,2.19 -2.824,3.206 -0.438,0.511 -0.902,0.988 -1.359,1.46 -0.456,0.473 -0.907,0.94 -1.358,1.407 l -1.478,0.106 c 0.465,-1.095 0.93,-2.191 1.389,-3.269 0.445,-1.083 0.828,-2.179 1.224,-3.223 -1.251,0.816 -1.523,0.9 -1.606,1.055 -0.414,0.802 -0.922,1.599 -1.445,2.401 -0.699,2.766 -1.466,5.032 -1.93,6.544 -0.913,0.514 -1.799,1.014 -2.67,1.506 -0.874,2.303 -2.256,3.543 -3.605,4.631 -1.366,1.143 -2.821,2.035 -3.683,3.902 -0.241,0.511 -0.327,0.996 -0.609,1.504 -0.702,1.245 -1.385,2.524 -2.141,3.747 -0.313,0.498 -0.625,0.995 -0.939,1.493 -0.835,2.483 -1.791,4.788 -3.1,6.894 -1.461,2.227 -3.396,4.165 -5.991,5.853 -0.405,-0.279 -0.684,-0.625 -0.83,-1.009 -0.132,0.121 -0.262,0.24 -0.395,0.362 -0.525,0.48 -1.06,0.97 -1.605,1.469 0.162,0.564 0.38,1.323 0.597,2.081 l 1.681,-2.501 c 0.511,1.603 -0.14,2.481 -1.752,2.536 -0.068,0.868 0.217,2.076 -0.276,2.569 -0.455,0.455 -0.836,0.888 -1.15,1.301 -0.317,0.409 -0.583,0.782 -0.775,1.151 -0.39,0.735 -0.526,1.414 -0.454,2.06 0.021,0.186 0.061,0.37 0.116,0.551 0.355,-0.047 0.718,-0.08 1.089,-0.102 -0.085,0.54 -0.162,1.078 -0.24,1.616 0.426,0.522 0.977,1.034 1.622,1.547 -0.674,-0.013 -1.285,-0.027 -1.858,-0.042 -0.12,0.695 -0.26,1.394 -0.447,2.103 -0.26,0.985 -0.813,2.085 -1.511,3.077 -0.38,0.539 -0.743,1.023 -1.1,1.454 -0.357,0.431 -0.727,0.78 -1.09,1.099 -0.729,0.629 -1.471,1.069 -2.31,1.347 -1.683,0.545 -3.738,0.494 -6.885,-0.087 1.063,-2.051 2.047,-3.862 3.08,-5.34 1.02,-1.497 2.09,-2.664 3.173,-3.653 0.823,-0.761 1.686,-1.369 2.604,-1.842 0.724,-2.614 1.38,-5.09 1.922,-7.525 0.102,-0.44 0.205,-0.963 0.226,-1.431 -0.637,0.618 -1.213,1.223 -1.738,1.82 -0.883,0.944 -1.642,1.854 -2.303,2.776 -0.048,0.066 -0.091,0.132 -0.138,0.198 0.257,0.31 0.559,0.676 0.948,1.145 -0.195,0.056 -0.388,0.115 -0.579,0.175 0.13,0.402 0.186,0.854 0.041,1.124 -0.531,1.049 -1.678,2.326 -2.685,2.706 -0.262,0.098 -0.526,0.183 -0.793,0.261 -0.014,0.028 -0.027,0.055 -0.041,0.083 -0.542,0.221 -1.12,0.477 -1.71,0.747 -0.045,0.553 -0.196,1.313 -0.408,2.35 -1.434,0.058 -1.981,-0.431 -2.242,-1.119 -1.047,0.482 -2.015,0.902 -2.76,1.133 0.484,2.461 0.278,2.542 -3.798,3.887 1.162,-1.326 2.142,-2.445 3.285,-3.751 -0.374,0.077 -0.655,0.075 -0.812,-0.035 -2.416,-1.688 -4.747,0.907 -7.625,3.207 -0.701,0.582 -1.449,1.098 -2.181,1.643 -0.741,0.536 -1.482,1.071 -2.224,1.608 -0.747,0.531 -1.5,1.055 -2.261,1.569 l -1.147,0.761 c -0.387,0.245 -0.788,0.469 -1.184,0.698 -2.626,1.5 -4.461,2.768 -5.614,4.016 -0.572,0.633 -0.994,1.223 -1.253,1.842 -0.259,0.619 -0.358,1.263 -0.309,1.954 0.054,0.787 0.861,1.265 1.32,1.874 -1.903,0.894 -3.68,1.73 -5.497,2.585 -0.903,0.438 -1.842,0.825 -2.811,1.226 -0.333,0.138 -0.671,0.279 -1.012,0.42 -0.278,0.87 -0.554,1.714 -0.835,2.558 l -2.678,0.507 2.123,1.364 c 0.031,0.005 0.061,0.009 0.091,0.014 l -0.011,0.038 -0.113,-0.057 -1.421,2.134 c -0.652,-0.085 -1.298,-0.143 -2.285,-0.311 -0.211,0.825 -0.392,1.531 -0.68,2.653 -1.772,-0.073 -3.414,-0.377 -5.087,-0.176 -0.452,0.055 -0.906,0.139 -1.37,0.244 -0.465,0.099 -0.946,0.198 -1.44,0.319 -0.989,0.238 -2.045,0.521 -3.218,0.777 -1.085,-0.602 -2.518,-1.407 -4.25,-2.417 1.476,-0.606 2.146,-0.881 2.778,-1.14 -0.112,-0.625 -0.776,-1.116 -1.37,-1.626 -0.633,0.276 -1.412,0.543 -2.409,0.836 -0.695,0.193 -1.48,0.444 -2.416,0.637 -0.411,0.087 -0.847,0.18 -1.308,0.278 -0.376,0.25 -0.756,0.501 -1.151,0.749 -0.893,-0.238 -1.767,-0.471 -2.605,-0.695 -0.416,-0.112 -0.822,-0.223 -1.218,-0.33 -0.395,-0.124 -0.779,-0.245 -1.151,-0.361 -0.004,-0.032 -0.009,-0.062 -0.013,-0.093 -1.123,1.115 -2.775,1.704 -4.293,1.715 -0.76,0.005 -1.485,-0.133 -2.095,-0.422 -0.366,-0.181 -0.69,-0.421 -0.957,-0.711 -1.236,0.24 -2.475,0.48 -3.737,0.686 -0.719,0.68 -1.545,1.311 -2.482,1.887 2.719,0.943 4.419,2.436 4.814,4.841 0.066,0.409 0.377,0.793 0.638,1.31 -2.711,0.947 -5.653,1.658 -8.061,2.824 -0.656,0.33 -1.316,0.573 -1.978,0.792 -0.662,0.217 -1.326,0.4 -1.991,0.549 -1.331,0.297 -2.666,0.456 -3.996,0.485 -2.66,0.107 -5.301,-0.525 -7.862,-1.559 -1.647,-0.671 -3.177,-1.44 -4.739,-2.28 -0.922,-0.547 -1.871,-1.11 -2.866,-1.7 -0.323,0.036 -0.646,0.072 -0.968,0.103 -1.769,0.169 -3.519,0.27 -5.254,0.313 -0.433,0.008 -0.866,0.025 -1.297,0.015 l -1.292,-0.053 c -0.286,-0.013 -0.571,-0.031 -0.857,-0.047 -1.478,0.252 -2.968,0.507 -4.481,0.766 -0.557,-0.44 -1.129,-0.878 -1.706,-1.335 -0.202,-0.025 -0.404,-0.049 -0.605,-0.074 -3.362,-0.546 -6.693,-1.271 -10.04,-2.071 -1.656,-0.472 -3.327,-0.949 -5.02,-1.432 -0.84,-0.244 -1.685,-0.49 -2.536,-0.738 -0.425,-0.123 -0.851,-0.246 -1.278,-0.371 -0.426,-0.125 -0.849,-0.279 -1.276,-0.418 0.385,-0.035 0.763,-0.069 1.135,-0.103 0.375,-0.039 0.744,-0.077 1.107,-0.115 0.727,-0.066 1.432,-0.111 2.119,-0.135 1.375,-0.05 2.679,-0.02 3.943,0.077 2.523,0.239 4.918,0.527 7.376,1.046 0.799,0.163 1.688,0.319 2.568,0.421 0.014,0.002 0.029,0.003 0.044,0.005 0.623,-0.315 1.168,-0.59 1.673,-0.846 -0.18,-1.39 -1.366,-2.513 -2.581,-3.625 -0.497,-0.112 -0.994,-0.224 -1.49,-0.336 l 0.417,-0.667 c -0.406,-0.401 -0.777,-0.81 -1.072,-1.239 l -2.786,-0.382 c -1.069,-0.129 -2.127,-0.346 -3.186,-0.543 l -3.173,-0.597 -3.169,-0.598 c -0.093,-0.017 -0.185,-0.038 -0.278,-0.056 -0.631,0.699 -1.558,1.189 -3.41,1.131 -2.051,-0.074 -3.892,-0.459 -5.557,-1.163 -1.655,-0.736 -3.16,-1.715 -4.602,-2.838 -0.022,-0.017 -0.044,-0.034 -0.066,-0.051 -0.771,0.027 -1.528,0.194 -2.252,0.59 -1.913,1.139 -8.437,-0.885 -10.788,-3.115 -1.457,-1.42 -3.151,-2.517 -5.05,-3.388 -0.948,-0.441 -1.943,-0.838 -2.974,-1.218 -0.957,-0.356 -1.923,-0.761 -2.919,-1.147 -1.387,0.591 -3.512,1.472 -5.598,2.295 -0.695,-0.388 -1.079,-0.638 -1.474,-0.852 -2.431,-1.261 -4.796,-2.629 -7.064,-4.104 -2.151,-1.485 -4.179,-3.123 -6.104,-4.833 -6.669,-0.989 -12.349,-3.832 -16.865,-8.154 0.437,0.745 0.902,1.526 1.397,2.376 -2.306,-1.331 -4.666,-1.477 -6.676,-2.233 -2.025,-0.724 -3.805,-1.953 -4.883,-5.244 2.336,-0.564 4.211,-1.042 6.517,-1.663 0.611,1.165 1.193,2.276 1.79,3.415 0.276,-0.085 0.578,-0.096 0.902,-0.046 0.656,0.106 1.408,0.46 2.265,0.904 0.957,0.512 2.013,1.193 3.129,1.878 l -0.689,-1.049 0.671,-0.139 c -0.618,-0.619 -1.148,-1.093 -1.708,-1.392 -5.46,-3.009 -10.342,-6.667 -14.651,-10.792 -0.593,-0.254 -1.202,-0.516 -1.828,-0.787 0.091,-0.271 0.175,-0.523 0.256,-0.763 -0.416,-0.423 -0.825,-0.851 -1.23,-1.283 -0.797,0.34 -1.646,0.442 -2.622,0.285 -0.962,-0.155 -2.048,-0.561 -3.324,-1.238 -0.638,-0.338 -1.324,-0.744 -2.067,-1.221 -0.728,-0.49 -1.492,-1.069 -2.327,-1.716 0.267,-1.527 0.552,-3.077 0.906,-4.886 -2.585,-1.867 -3.822,-0.799 -4.997,0.2 -1.175,0.993 -2.324,1.936 -4.668,-0.483 1.021,-1.875 2.038,-3.706 3.315,-5.931 0.822,0.273 1.653,0.554 2.487,0.834 -0.008,-0.007 -0.015,-0.014 -0.022,-0.022 -0.627,-0.629 -1.215,-1.278 -1.771,-1.941 -0.551,-0.668 -1.032,-1.385 -1.512,-2.092 -0.948,-1.423 -1.804,-2.883 -2.634,-4.346 l -0.617,-1.099 -0.575,-1.129 c -0.384,-0.751 -0.771,-1.5 -1.17,-2.242 -0.798,-1.509 -1.644,-2.988 -2.446,-4.55 -0.773,-1.574 -1.568,-3.192 -2.402,-4.891 1.539,0.654 3.232,1.585 4.676,1.893 0.71,0.149 1.385,0.361 2.058,0.649 0.688,0.278 1.363,0.639 2.039,1.115 1.358,0.947 2.701,2.36 4.204,4.442 3.944,5.157 8.425,9.977 12.742,14.15 1.832,-0.123 2.888,-0.211 3.725,-0.281 0.5,0.737 0.942,1.483 1.405,2.174 0.246,-0.089 0.49,-0.183 0.732,-0.289 0.419,-0.178 2.04,1.162 3.163,2.256 l 0.351,-0.383 c 0.316,0.158 0.633,0.316 0.955,0.475 -0.768,-0.838 -1.569,-1.666 -2.421,-2.481 -0.316,-0.303 -0.639,-0.604 -0.968,-0.903 -0.334,-0.295 -0.664,-0.599 -0.989,-0.915 -0.659,-0.622 -1.348,-1.238 -2.07,-1.848 -0.981,-0.829 -1.944,-1.697 -2.894,-2.592 -0.941,-0.902 -1.809,-1.888 -2.701,-2.854 -0.141,-0.157 -0.282,-0.315 -0.423,-0.473 -0.952,0.271 -2.018,0.443 -3.156,0.578 0.147,-1.221 0.299,-2.408 0.464,-3.622 -0.683,-0.82 -1.339,-1.661 -2.018,-2.476 -0.363,-0.443 -0.529,-1.039 -0.821,-1.942 -0.062,-0.01 -0.122,-0.019 -0.185,-0.029 0.031,-0.091 0.06,-0.177 0.089,-0.263 -0.065,-0.198 -0.136,-0.407 -0.218,-0.632 -0.132,-0.265 -0.279,-0.508 -0.462,-0.702 -0.528,-0.564 -1.332,-0.762 -2.33,-1.294 1.061,-0.638 1.849,-1.111 2.56,-1.538 -0.259,-0.397 -0.522,-0.801 -0.791,-1.214 -0.718,1.064 -1.215,1.802 -2.05,3.04 -0.744,-1.211 -1.584,-2.376 -2.245,-3.371 -0.298,-0.447 -0.559,-0.859 -0.757,-1.226 l 0.067,0.657 c -0.429,-0.136 -0.857,-0.272 -2.275,-0.723 0.363,-0.575 0.5,-1.08 0.836,-1.229 0.246,-0.109 0.625,0.018 0.984,0.112 -0.006,-0.308 -0.027,-0.609 -0.061,-0.905 -0.321,-0.149 -0.566,-0.339 -0.763,-0.612 -0.244,-0.339 -0.416,-0.804 -0.575,-1.474 -0.155,-0.643 -0.301,-1.475 -0.43,-2.586 -0.251,-0.392 -0.519,-0.778 -0.806,-1.16 -0.287,-0.42 -0.591,-0.837 -0.908,-1.252 -0.452,-0.591 -0.932,-1.179 -1.423,-1.771 -0.134,0.188 -0.273,0.385 -0.421,0.596 -0.032,-0.434 -0.05,-0.821 -0.058,-1.169 -0.03,-0.036 -0.059,-0.071 -0.089,-0.107 0.026,-0.142 0.054,-0.279 0.084,-0.41 0.002,-0.23 0.008,-0.439 0.019,-0.624 0.033,-0.561 0.115,-0.928 0.289,-1.16 0.346,-0.465 1.058,-0.391 2.47,-0.265 -0.193,0.258 -0.373,0.5 -0.546,0.734 0.563,0.409 1.252,1.147 2.1,2.295 0.309,0.416 0.798,0.952 1.23,1.36 0.453,0.396 0.841,0.671 0.911,0.598 0.603,-0.616 1.229,-0.613 1.837,-0.276 -4.198,-6.245 -7.943,-12.792 -11.203,-19.588 -0.008,0.201 -0.015,0.4 -0.015,0.597 -0.963,-0.443 -1.856,-0.926 -2.792,-1.401 l 0.079,-1.169 2.195,0.849 c -1.553,-3.304 -2.99,-6.666 -4.309,-10.079 -0.094,0.117 -0.179,0.24 -0.256,0.37 -0.309,0.519 -0.497,1.152 -0.644,2.032 -0.143,0.879 -0.274,2.014 -0.334,3.499 -0.084,1.565 -0.4,3.111 -0.871,4.456 0.267,0.864 0.476,1.682 0.616,2.449 0.244,1.339 0.367,2.5 0.188,3.52 -0.337,2.027 -1.678,3.433 -4.387,4.004 -0.701,-1.903 -1.382,-3.454 -1.833,-5.057 -0.439,-1.721 -0.192,-3.388 -0.048,-5.052 -0.152,-0.264 -0.306,-0.545 -0.464,-0.844 -1.108,-2.009 -2.024,-4.099 -3.238,-6.684 0.899,0.128 1.766,0.249 2.753,0.379 0.049,-0.125 0.104,-0.237 0.158,-0.32 0.529,-0.795 0.944,-1.644 1.269,-2.552 -0.721,-1.127 -1.312,-2.049 -1.895,-2.961 -1.203,-1.912 -2.906,-3.791 -1.049,-5.563 0.447,0.296 0.885,0.591 1.32,0.883 0.325,-1.098 0.644,-2.184 0.993,-3.261 0.05,-0.29 0.133,-0.522 0.244,-0.707 0.355,-1.019 0.709,-2.034 1.059,-3.04 -1.251,-1.121 -2.008,-1.8 -2.657,-2.382 0.076,-0.608 0.178,-1.191 0.303,-1.745 -0.197,-0.431 -0.389,-0.91 -0.584,-1.447 -0.492,-1.448 -0.924,-3.333 -1.54,-5.844 0.454,0.168 0.994,0.127 1.221,0.488 0.754,1.198 1.542,2.288 2.371,3.276 0.151,-0.197 0.313,-0.376 0.487,-0.539 -1.889,-8.607 -3.053,-17.434 -3.439,-26.398 -1.211,-1.721 -1.952,-3.685 -0.145,-7.141 0.022,-6.705 0.483,-13.474 1.401,-20.273 -0.144,0 -0.268,-0.039 -0.366,-0.128 -0.033,-0.031 -0.065,-0.057 -0.098,-0.086 -0.534,0.8 -1.007,1.506 -1.446,2.163 -0.483,0.743 -0.881,1.433 -1.305,2.124 l -0.99,-0.455 c -0.027,-0.472 -0.053,-0.945 -0.081,-1.437 -0.022,-0.493 -0.015,-1.004 -0.024,-1.557 -0.004,-0.444 -0.008,-0.915 -0.012,-1.421 -1.12,0.428 -2.225,1.171 -3.308,1.67 0,-10e-4 0,-10e-4 0,-0.002 -0.044,0.377 -0.088,0.756 -0.13,1.141 -0.175,2.288 -0.362,4.739 -0.577,7.559 0.926,0.213 2.376,0.647 3.851,0.843 0.822,0.109 1.532,0.435 2.028,1.043 0.499,0.609 0.756,1.497 0.608,2.745 -0.281,2.371 -1.6,2.247 -3.077,1.642 -1.046,-0.431 -3.262,0.051 -3.367,0.694 -0.246,1.498 -0.679,2.647 -1.228,3.598 -0.517,0.952 -1.141,1.706 -1.821,2.412 -1.355,1.412 -2.897,2.625 -3.981,4.861 -0.939,-2.102 -1.646,-3.708 -2.627,-5.974 0.945,-1.265 1.956,-2.45 2.915,-3.608 0.969,-1.158 1.929,-2.289 2.923,-3.44 -0.165,-0.753 -0.333,-1.521 -0.504,-2.3 -0.173,-0.782 -0.35,-1.577 -0.474,-2.38 -0.271,-1.617 -0.548,-3.259 -0.822,-4.889 2.122,-1.285 3.231,-2.088 3.589,-3.264 0.397,-1.173 0.08,-2.701 -0.68,-5.449 -0.252,-0.917 -0.467,-1.867 -0.718,-2.894 1.157,-1.286 2.21,-2.316 3.336,-3.44 1.082,1.131 2.085,2.175 3.112,3.192 1.746,-0.491 3.042,-1.554 4.073,-2.997 0.642,-0.863 1.21,-1.863 1.731,-2.957 -0.561,0.339 -1.123,0.68 -1.685,1.027 l -0.286,-1.298 c 1.002,-0.724 1.975,-1.441 2.994,-2.136 0.038,-0.099 0.077,-0.196 0.114,-0.296 0.077,-0.201 0.172,-0.394 0.279,-0.591 -0.272,0.147 -0.581,0.316 -0.958,0.524 0.125,-0.469 0.247,-0.928 0.367,-1.38 -0.526,-0.103 -1.079,-0.154 -1.652,-0.17 -0.969,1.794 -2.113,3.399 -3.233,5.174 -1.014,-2.071 -0.182,-4.187 0.415,-6.192 -0.332,-0.481 -0.528,-1.129 -0.592,-1.942 -0.37,0.007 -0.755,0.045 -1.072,-0.052 -0.32,-0.1 -0.572,-0.34 -0.662,-0.897 -0.068,-0.538 0.03,-1.377 0.383,-2.672 0.719,-0.288 1.255,-0.348 1.631,-0.15 0.081,-0.743 0.161,-1.486 0.288,-2.219 -0.351,0.221 -0.735,0.396 -1.098,0.602 -0.125,0.073 -0.246,0.151 -0.361,0.236 -0.182,0.464 -0.362,0.982 -0.542,1.563 l 0.107,-0.126 c -0.008,0.032 -0.016,0.062 -0.025,0.094 -0.018,0.007 -0.036,0.014 -0.055,0.022 -0.347,0.497 -0.696,0.998 -1.046,1.499 l -0.563,0.818 -0.522,0.829 c -0.697,1.105 -1.4,2.2 -2.124,3.239 -1.557,2.228 -3.377,4.166 -4.325,1.517 -0.447,-1.257 -0.759,-2.737 -1.029,-4.291 -0.127,-0.782 -0.256,-1.576 -0.385,-2.367 -0.063,-0.398 -0.126,-0.794 -0.188,-1.188 -0.052,-0.391 -0.104,-0.779 -0.154,-1.163 1.318,-0.851 1.796,-0.324 2.373,-0.128 0.55,0.187 1.047,0.259 1.504,0.201 0.09,-0.876 0.165,-1.775 0.277,-2.657 0.227,-1.405 0.53,-2.772 1.083,-3.931 1.502,-3.114 1.568,-4.86 0.336,-6.927 -1.066,-1.745 -0.503,-3.941 1.297,-5.743 0.617,-0.613 1.226,-1.206 1.87,-1.784 0.656,-0.567 1.318,-1.139 1.995,-1.724 0.213,-1.359 0.432,-2.756 0.654,-4.171 0.229,-1.42 0.442,-2.875 0.759,-4.292 1.17,0.697 1.481,1.636 1.746,2.644 0.375,1.359 0.96,2.238 1.682,2.628 1.095,-2.414 2.201,-4.831 3.526,-7.113 1.934,-3.661 4.381,-6.978 7.205,-9.757 0.309,-0.319 0.617,-0.945 1.023,-1.575 -0.097,-0.747 -0.206,-1.584 -0.213,-1.642 1.131,-1.517 2.242,-3.007 3.338,-4.476 1.167,-1.412 2.317,-2.805 3.458,-4.184 0.567,-0.69 1.131,-1.376 1.694,-2.06 0.589,-0.662 1.175,-1.322 1.761,-1.98 1.169,-1.318 2.321,-2.637 3.457,-3.971 2.653,-2.97 5.382,-5.876 8.19,-8.702 0.056,-0.248 0.111,-0.491 0.166,-0.735 0.217,-0.943 0.432,-1.884 0.71,-3.096 0.587,0.595 1.072,1.112 1.344,1.633 3.205,-3.127 6.514,-6.146 9.939,-9.026 3.312,-2.89 6.63,-5.312 8.363,-9.036 0.934,-1.829 2.257,-3.698 4.045,-5.501 0.448,-0.449 0.921,-0.898 1.432,-1.331 0.522,-0.414 1.075,-0.821 1.659,-1.218 1.17,-0.794 2.466,-1.547 3.893,-2.241 0.531,-0.254 1.049,-0.572 1.585,-0.903 0.54,-0.322 1.086,-0.679 1.644,-1.06 1.115,-0.76 2.282,-1.609 3.561,-2.431 2.081,0.429 4.224,0.994 6.541,1.624 1.228,-0.788 2.607,-1.733 4.182,-2.511 1.606,-0.709 3.411,-1.244 5.416,-1.27 0.764,-0.004 1.783,-0.353 2.892,-0.757 1.117,-0.382 2.306,-0.86 3.361,-1.228 1.276,-0.45 2.552,-0.901 3.829,-1.352 l 3.884,-1.194 c 1.296,-0.388 2.591,-0.777 3.885,-1.165 1.312,-0.324 2.625,-0.634 3.938,-0.93 1.03,-0.232 2.107,0.34 3.322,0.581 -1.8,0.988 -3.436,1.886 -5.048,2.771 l -1.193,0.66 c -0.391,0.239 -0.781,0.477 -1.175,0.718 -0.782,0.482 -1.575,0.97 -2.396,1.476 1.427,0.052 2.685,0.099 3.795,0.14 1.107,0.047 2.079,0.136 2.914,0.167 0.399,0.018 0.768,0.03 1.113,0.037 0.709,-0.437 1.164,-0.748 1.653,-0.893 0.257,-0.077 0.626,0.392 0.942,0.613 -0.066,0.053 -0.13,0.109 -0.194,0.167 0.072,-0.012 0.142,-0.023 0.211,-0.036 0.875,-0.158 1.444,-0.482 1.911,-0.932 0.467,-0.452 0.82,-1.08 1.249,-1.911 0.443,-0.098 0.881,-0.196 1.315,-0.293 0.757,-0.793 1.598,-0.846 2.681,-0.597 0.408,-0.091 0.814,-0.182 1.218,-0.272 0.948,-0.193 1.892,-0.357 2.835,-0.517 -0.279,-0.069 -0.553,-0.149 -0.819,-0.247 -0.832,-0.281 -1.599,-0.711 -2.276,-1.376 0.578,-0.167 1.124,-0.323 1.64,-0.472 0.524,-0.118 1.018,-0.229 1.482,-0.333 0.682,-0.149 1.301,-0.274 1.865,-0.377 l -0.507,-0.112 2.98,-2.261 c 0.543,0.117 1.092,0.289 1.634,0.436 -0.688,0.516 -1.364,1.077 -2.032,1.642 0.7,-0.059 1.267,-0.051 1.726,0.033 1.128,0.198 1.609,0.865 1.848,2.033 0.667,-0.382 1.461,-0.686 2.338,-0.946 0.701,-1.112 2.21,-2.178 4.74,-3.657 0.713,0.796 1.548,1.578 2.17,2.411 0.93,-0.138 1.849,-0.294 2.731,-0.494 0.025,-0.234 0.07,-0.489 0.137,-0.767 -1.737,-0.653 -3.182,-1.185 -5.025,-1.854 1.883,-0.325 3.666,-0.308 5.388,-0.147 0.095,0.007 0.189,0.019 0.284,0.028 0.15,-0.388 0.321,-0.807 0.512,-1.26 -1.758,-0.549 -3.092,-1.172 -4.615,-1.369 -0.744,-0.096 -1.414,-0.241 -2.025,-0.433 -0.609,-0.183 -1.154,-0.385 -1.657,-0.649 -0.265,-0.138 -0.517,-0.288 -0.759,-0.45 -0.406,-0.06 -0.813,-0.118 -1.221,-0.185 -1.542,-0.239 -3.103,-0.493 -4.727,-0.692 1.05,-0.497 2.541,-0.865 3.597,-1.279 -1.181,-1.111 -2.502,-1.667 -3.866,-1.665 l -0.942,0.085 c -0.728,0.138 -1.451,0.465 -2.16,0.952 -0.852,0.581 -1.685,1.389 -2.464,2.422 -0.908,1.203 -2.067,2.066 -3.243,2.557 -1.162,0.534 -2.336,0.715 -3.296,0.461 -2.066,-0.545 -3.476,-2.551 -4.175,-4.282 -0.659,-1.613 1.263,-3.076 4.029,-4.053 0.887,-0.335 1.758,-0.624 2.573,-1.001 0.818,-0.368 1.593,-0.779 2.328,-1.228 1.469,-0.898 2.775,-1.953 3.928,-3.112 -2.233,-1.926 -3.351,-2.908 -3.073,-3.939 0.138,-0.515 0.621,-1.039 1.48,-1.693 0.867,-0.62 2.116,-1.339 3.782,-2.295 2.416,-1.364 4.957,-2.437 7.635,-3.022 1.335,-0.317 2.692,-0.571 4.068,-0.776 1.378,-0.193 2.766,-0.398 4.187,-0.437 4.188,-0.171 8.394,-0.657 12.513,-0.357 1.196,0.063 2.447,0.2 3.621,0.429 1.174,0.236 2.27,0.522 3.16,1.005 1.462,0.758 2.847,1.599 4.098,2.502 3.81,1.274 4.848,1.991 3.12,2.695 1.194,1.257 2.157,2.593 2.549,4.13 0.301,1.166 0.265,2.409 -0.233,3.786 0.387,0.073 0.769,0.146 1.141,0.216 1.138,0.218 2.206,0.423 3.191,0.612 2.078,-1.009 3.537,-1.707 4.988,-2.307 -0.968,-0.831 -1.361,-1.522 -1.37,-2.103 -0.009,-0.591 0.371,-1.103 0.936,-1.564 1.129,-0.932 3.018,-1.722 4.003,-2.847 1.219,0.253 2.423,0.504 3.647,0.759 0.612,0.128 1.229,0.258 1.855,0.39 0.621,0.159 1.251,0.321 1.895,0.485 0.205,0.053 0.414,0.108 0.621,0.162 -0.983,-1.686 -0.878,-3.43 0.603,-5.139 1.014,-1.172 3.423,-2.608 5.192,-2.449 1.912,0.126 4.481,2.013 5.316,3.378 1.087,1.773 0.666,3.753 1.081,5.642 0.366,1.691 0.652,3.569 1.546,5.176 0.903,1.575 2.372,3.019 5.166,3.758 1.513,0.413 3.034,0.938 4.529,1.535 1.486,0.634 2.961,1.281 4.429,1.814 0.735,0.267 1.468,0.505 2.201,0.698 0.734,0.191 1.468,0.338 2.191,0.472 1.453,0.242 2.917,0.243 4.417,-0.123 1.102,1.264 2.135,2.393 3.08,3.535 0.937,1.162 1.809,2.276 2.622,3.397 0.437,0.602 0.785,1.196 1.019,1.776 0.086,0.034 0.173,0.067 0.26,0.102 0.841,0.343 1.677,0.727 2.508,1.131 0.596,-0.815 2.288,-1.256 3.698,-1.423 1.46,-0.174 3.299,0.329 5.613,0.628 -0.339,2.044 -0.643,3.759 -0.94,5.371 0.427,0.237 0.851,0.478 1.27,0.725 1.802,1.104 3.566,2.245 5.179,3.488 0.516,0.392 1.035,0.785 1.554,1.179 0.509,0.408 1.019,0.816 1.53,1.225 1.031,0.807 2.065,1.615 3.1,2.426 l 1.561,1.205 0.78,0.603 0.756,0.633 c 1.006,0.848 2.006,1.7 2.995,2.558 0.988,0.859 1.964,1.726 2.919,2.604 0.922,0.916 1.819,1.848 2.688,2.793 1.732,1.896 3.381,3.813 4.699,5.953 1.402,2.138 2.727,4.376 4.095,6.605 0.33,-0.075 0.676,-0.153 1.052,-0.237 0.143,0.943 0.24,1.728 0.316,2.432 0.556,0.871 1.125,1.736 1.713,2.586 0.108,0.102 0.216,0.203 0.323,0.306 0.356,-1.209 1.042,-2.27 2.33,-3.074 0.475,-0.295 0.575,-1.273 0.474,-2.017 -0.119,-0.887 -0.299,-1.789 -0.503,-2.712 -0.2,-0.928 -0.474,-1.821 -0.709,-2.769 0.68,0.249 1.339,0.491 1.984,0.727 0.629,0.261 1.245,0.516 1.856,0.769 1.232,0.518 2.444,1.028 3.705,1.558 -1.001,1.032 -1.831,1.887 -3.083,3.178 2.538,1.406 4.451,2.634 6.374,3.958 0.884,0.617 1.753,1.277 2.618,1.949 0.835,0.672 1.63,1.389 2.452,2.077 -0.034,0.12 -0.071,0.237 -0.091,0.365 -0.351,2.335 -0.768,4.595 -1.933,5.944 -0.974,1.134 -2.478,1.625 -4.858,1.05 0.069,0.115 0.129,0.228 0.184,0.341 1.428,1.651 2.821,3.332 4.183,5.04 l 0.372,-0.123 c 1.004,1.363 2.048,2.701 3.015,4.093 l 2.851,4.213 0.377,-0.044 c 0.002,-0.003 0.003,-0.005 0.005,-0.008 -0.516,-1.109 -1.032,-2.218 -1.629,-3.5 -0.304,-0.641 -0.616,-1.336 -0.985,-2.08 -0.384,-0.736 -0.802,-1.536 -1.264,-2.421 2.233,2.411 3.225,3.707 4.234,4.911 -1.372,-3.22 -2.967,-6.245 -5.263,-10.778 2.465,2.628 3.911,3.978 5.159,5.579 0.565,0.701 1.071,1.441 1.596,2.17 l 1.565,2.198 1.559,2.209 c 0.519,0.738 1.045,1.473 1.516,2.242 0.967,1.523 1.925,3.057 2.868,4.603 0.467,0.775 0.947,1.545 1.392,2.333 l 0.652,1.225 c 0.19,-0.071 0.38,-0.142 0.57,-0.213 l 0.737,1.818 c -0.154,-0.001 -0.308,0 -0.462,0 0.45,0.885 0.873,1.788 1.275,2.701 0.458,1.066 0.938,2.124 1.316,3.228 0.798,2.191 1.58,4.381 2.518,6.491 1.324,3.181 2.647,6.359 3.97,9.538 l 1.822,4.841 c 0.489,1.319 0.998,2.633 1.436,3.971 0.227,0.308 0.459,0.61 0.703,0.899 0.663,0.786 1.395,1.502 2.133,2.17 1.432,1.259 2.426,2.595 2.937,4.098 0.255,0.752 0.389,1.546 0.396,2.392 -0.013,0.851 -0.184,1.764 -0.473,2.734 -0.005,0.019 -0.011,0.038 -0.017,0.056 0.401,1.523 0.805,3.029 1.265,4.425 0.37,-0.42 0.873,-0.885 1.406,-1.569 0.121,0.502 0.233,0.927 0.332,1.292 0.086,0.37 0.158,0.68 0.22,0.945 0.119,0.531 0.181,0.888 0.15,1.205 -0.091,0.924 -0.317,1.802 -0.597,2.613 0.172,0.774 0.192,1.576 0.137,2.383 0.508,1.645 1.206,2.968 2.401,3.503 0.156,0.066 0.368,0.599 0.556,1.26 0.034,0.033 0.067,0.064 0.103,0.098 -0.024,0.008 -0.046,0.016 -0.069,0.025 0.177,0.65 0.327,1.4 0.375,1.946 0.116,1.405 0.334,2.81 0.485,4.225 0.137,1.416 0.282,2.837 0.38,4.258 0.084,1.231 0.129,2.463 0.107,3.689 0.29,0.351 0.553,0.754 0.753,1.239 0.336,0.801 0.569,1.821 0.646,3.173 -0.645,-0.193 -1.26,-0.375 -1.86,-0.551 -0.065,0.302 -0.136,0.604 -0.213,0.904 -0.185,0.706 -0.038,2.125 0.247,3.645 0.086,0.475 0.193,0.959 0.302,1.435 0.227,-0.065 0.46,-0.133 0.71,-0.207 -0.155,0.615 -0.261,1.231 -0.332,1.846 0.103,0.424 0.208,0.815 0.311,1.154 0.554,1.84 1.815,2.346 2.66,3.798 0.32,0.551 0.6,1.234 0.907,2.06 0.304,0.825 0.661,1.794 1.031,2.913 -2.188,1.072 -3.746,1.806 -5.294,2.523 -0.18,1.337 -0.305,2.622 -0.363,3.84"
         style="fill:#000000;fill-opacity:1;fill-rule:nonzero;stroke:none"
         id="path3746"
         inkscape:connector-curvature="0" /></g><g
       id="g3748"
       transform="translate(62.3863,291.6199)"
       style="fill:#000000"><path
         d="m 0,0 c 0.578,4.38 1.652,7.04 3.942,10.029 0.685,0.923 1.255,1.947 1.706,3.025 0.226,0.538 0.422,1.09 0.587,1.648 0.171,0.557 0.342,1.11 0.465,1.669 0.509,2.231 0.525,4.479 -0.012,6.318 C 5.879,20.075 5.45,17.586 4.501,15.753 3.383,13.394 2.229,11.086 1.046,8.783 0.435,7.638 -0.082,6.462 -0.628,5.289 -1.169,4.115 -1.707,2.934 -2.237,1.74 -2.571,0.981 -3.031,0.108 -3.392,-0.721 c -0.336,-0.835 -0.595,-1.62 -0.589,-2.177 0.016,-1.393 -0.081,-2.765 -0.254,-4.128 -0.086,-0.681 -0.191,-1.36 -0.311,-2.037 -0.126,-0.676 -0.206,-1.363 -0.329,-2.043 -0.23,-1.364 -0.497,-2.726 -0.763,-4.093 l -0.393,-2.053 -0.186,-1.03 -0.135,-1.037 c -0.252,-2.095 -0.409,-4.201 -0.542,-6.449 -0.031,-0.562 -0.072,-1.132 -0.091,-1.716 -0.007,-0.584 -0.014,-1.179 -0.021,-1.788 -0.017,-1.217 -0.035,-2.488 -0.053,-3.831 0.492,1.646 0.864,2.87 1.149,3.884 0.285,1.013 0.47,1.816 0.665,2.603 0.361,1.576 0.513,3.113 0.831,6.192 l 0.16,1.573 c 0.055,0.525 0.142,1.045 0.212,1.567 l 0.448,3.132 c 0.323,2.084 0.593,4.18 1.119,6.217 0.326,1.368 0.88,2.765 1.378,4.112 C -0.6,-2.475 -0.173,-1.174 0,0"
         style="fill:#000000;fill-opacity:1;fill-rule:nonzero;stroke:none"
         id="path3750"
         inkscape:connector-curvature="0" /></g><g
       id="g3752"
       transform="translate(66.0236,271.568)"
       style="fill:#000000"><path
         d="m 0,0 c 0.161,0.586 0.36,1.168 0.536,1.758 0.356,1.176 0.716,2.367 1.082,3.579 0.374,1.209 0.7,2.447 1.13,3.691 0.436,1.239 0.881,2.506 1.339,3.808 C 2.936,17.908 2.5,17.901 -0.213,11.899 -0.629,10.969 -1.026,10.027 -1.377,9.07 -1.698,8.106 -1.991,7.13 -2.263,6.145 -2.794,4.173 -3.288,2.173 -3.628,0.139 -4.233,-3.94 -4.695,-8.081 -4.857,-12.244 l 1.018,-0.886 c 0.524,1.922 1.025,3.811 1.61,5.693 0.611,1.879 1.209,3.76 1.748,5.686 C -0.321,-1.17 -0.161,-0.586 0,0"
         style="fill:#000000;fill-opacity:1;fill-rule:nonzero;stroke:none"
         id="path3754"
         inkscape:connector-curvature="0" /></g><g
       id="g3756"
       transform="translate(76.8858,307.3429)"
       style="fill:#000000"><path
         d="M 0,0 C 0.146,1.205 0.268,2.209 0.381,3.138 0.5,4.069 0.588,4.937 0.754,5.827 2.046,6.524 3.031,7.055 4.016,7.586 3.942,6.598 3.869,5.611 3.786,4.489 3.767,4.211 3.747,3.924 3.727,3.626 3.718,3.325 3.708,3.014 3.698,2.69 3.68,2.044 3.661,1.349 3.64,0.587 5.257,3.438 6.27,4.863 7.626,6.975 6.178,7.28 5.143,7.497 4.11,7.714 4.631,8.407 5.152,9.1 5.802,9.964 c 0.328,0.429 0.675,0.905 1.091,1.432 0.43,0.519 0.91,1.099 1.458,1.761 C 4.185,11.555 2.5,12.665 3.521,18.039 3.651,18.715 2.557,18.763 1.877,19.199 1.126,16.321 0.511,14.129 0.036,11.694 -1.226,11.393 -2.11,11.177 -3.551,10.811 -3.72,9.5 -4.019,8.099 -4.213,6.89 -4.363,5.664 -4.421,4.636 -4.172,4.099 -3.286,2.193 -1.655,1.481 0,0"
         style="fill:#000000;fill-opacity:1;fill-rule:nonzero;stroke:none"
         id="path3758"
         inkscape:connector-curvature="0" /></g><g
       id="g3760"
       transform="translate(147.9412,409.5347)"
       style="fill:#000000"><path
         d="M 0,0 C 0.39,0.206 0.788,0.415 1.195,0.63 2.009,1.057 2.86,1.504 3.762,1.977 3.531,1.216 2.937,0.547 2.198,-0.065 1.463,-0.685 0.562,-1.212 -0.22,-1.796 -1.804,-2.931 -3.097,-3.96 -2.345,-5.058 c 1.2,0.267 2.379,0.803 3.553,1.461 0.908,0.495 1.835,1.025 2.759,1.564 1.623,0.309 2.806,0.863 3.794,1.69 0.252,0.209 0.489,0.438 0.718,0.685 1.185,0.468 2.375,0.743 3.573,0.65 0.003,0.003 0.333,0.318 0.511,0.487 L 11.673,1.362 C 12.538,2.71 13.422,4.064 14.305,5.397 11.133,5.475 9.435,5.479 8.112,5.28 6.787,5.078 5.859,4.599 4.123,3.742 2.01,2.683 0.427,1.882 -0.778,1.243 -1.962,0.563 -2.768,0.044 -3.356,-0.399 -4.531,-1.29 -4.821,-1.911 -5.388,-3.147 c 1.404,0.824 2.788,1.636 4.26,2.499 0.37,0.212 0.739,0.44 1.128,0.648"
         style="fill:#000000;fill-opacity:1;fill-rule:nonzero;stroke:none"
         id="path3762"
         inkscape:connector-curvature="0" /></g><g
       id="g3764"
       transform="translate(151.5579,93.0937)"
       style="fill:#000000"><path
         d="m 0,0 c -0.919,0.893 -2.717,1.594 -4.049,2.494 -0.41,-0.603 -1.517,-1.055 -1.085,-1.835 0.777,-1.47 2.346,-3.056 4.018,-4.481 0.7,-0.593 1.423,-1.181 2.17,-1.771 0.745,-0.594 1.513,-1.192 2.337,-1.749 1.645,-1.139 3.375,-2.337 5.238,-3.628 0.198,1.079 0.363,1.979 0.408,2.225 -1.83,1.697 -3.392,3.2 -4.86,4.596 C 2.733,-2.71 1.408,-1.333 0,0"
         style="fill:#000000;fill-opacity:1;fill-rule:nonzero;stroke:none"
         id="path3766"
         inkscape:connector-curvature="0" /></g><g
       id="g3768"
       transform="translate(71.1263,295.4514)"
       style="fill:#000000"><path
         d="M 0,0 C 0.152,0.461 0.286,0.909 0.439,1.334 0.597,1.758 0.75,2.168 0.898,2.565 1.195,3.36 1.475,4.107 1.745,4.83 2.288,6.272 2.793,7.614 3.327,9.032 2.486,9.803 1.888,10.352 0.893,11.264 0.538,10.107 0.267,9.092 0.034,8.199 -0.197,7.305 -0.374,6.527 -0.439,5.814 -0.509,5.061 -0.472,4.37 -0.389,3.487 -0.296,2.601 -0.204,1.536 0,0"
         style="fill:#000000;fill-opacity:1;fill-rule:nonzero;stroke:none"
         id="path3770"
         inkscape:connector-curvature="0" /></g><g
       id="g3772"
       transform="translate(66.309,237.5318)"
       style="fill:#000000"><path
         d="m 0,0 c -0.336,0.975 -0.845,2.196 -1.522,3.848 -0.2,-4.232 -0.04,-7.355 0.002,-10.493 1.416,2.027 2.128,3.006 2.106,4.302 C 0.574,-1.696 0.38,-0.971 0,0"
         style="fill:#000000;fill-opacity:1;fill-rule:nonzero;stroke:none"
         id="path3774"
         inkscape:connector-curvature="0" /></g><g
       id="g3776"
       transform="translate(134.7009,102.2025)"
       style="fill:#000000"><path
         d="m 0,0 c 0.327,0.669 0.159,1.829 -0.53,3.45 -0.262,0.62 -0.56,1.203 -0.892,1.756 -0.333,0.552 -0.7,1.073 -1.068,1.599 -0.752,1.037 -1.618,1.981 -2.566,2.878 -0.947,0.897 -1.976,1.749 -3.048,2.6 -1.051,0.872 -2.113,1.778 -3.194,2.708 -1.345,-1.685 -2.403,-3.01 -3.581,-4.486 0.58,-0.732 1.128,-1.423 1.651,-2.085 0.515,-0.672 1.061,-1.26 1.564,-1.857 1.02,-1.179 1.992,-2.27 3.016,-3.316 0.544,-0.556 1.165,-1.081 1.812,-1.558 0.642,-0.484 1.358,-0.867 2.023,-1.216 1.019,-0.518 1.884,-0.855 2.595,-1.021 0.209,-0.12 0.425,-0.24 0.658,-0.361 1.331,-0.659 3.033,-1.383 5.201,-2.249 C 2.666,-2.313 1.738,-1.509 0.844,-0.734 0.559,-0.485 0.278,-0.242 0,0"
         style="fill:#000000;fill-opacity:1;fill-rule:nonzero;stroke:none"
         id="path3778"
         inkscape:connector-curvature="0" /></g><g
       id="g3780"
       transform="translate(97.2629,319.2824)"
       style="fill:#000000"><path
         d="M 0,0 C 0.943,-0.021 2.156,0.422 3.054,-0.295 3.486,3.155 2.835,3.864 1.833,3.767 0.835,3.676 -0.5,2.787 -1.341,3.175 -1.525,1.868 -1.375,1.056 -1.13,0.602 -0.874,0.142 -0.471,0.012 0,0"
         style="fill:#000000;fill-opacity:1;fill-rule:nonzero;stroke:none"
         id="path3782"
         inkscape:connector-curvature="0" /></g><g
       id="g3784"
       transform="translate(72.1959,277.424)"
       style="fill:#000000"><path
         d="M 0,0 C 0.048,0.56 0.051,1.142 0.028,1.886 0.034,2.625 0.017,3.526 -0.003,4.733 -0.232,3.798 -0.441,2.944 -0.636,2.15 -0.808,1.352 -0.943,0.609 -1.084,-0.091 -1.357,-1.493 -1.598,-2.732 -1.84,-3.971 l 0.948,-0.261 C -0.361,-2.154 -0.094,-1.12 0,0"
         style="fill:#000000;fill-opacity:1;fill-rule:nonzero;stroke:none"
         id="path3786"
         inkscape:connector-curvature="0" /></g><g
       id="g3788"
       transform="translate(66.8737,220.5557)"
       style="fill:#000000"><path
         d="m 0,0 c 0.01,-0.069 0.022,-0.138 0.032,-0.207 0.022,0.029 0.042,0.059 0.065,0.089 z"
         style="fill:#000000;fill-opacity:1;fill-rule:nonzero;stroke:none"
         id="path3790"
         inkscape:connector-curvature="0" /></g><g
       id="g3792"
       transform="translate(67.4827,211.2672)"
       style="fill:#000000"><path
         d="M 0,0 0.934,-0.04 C 0.425,3.002 -0.118,6.035 -0.577,9.081 -2.485,6.517 -0.964,3.167 0,0"
         style="fill:#000000;fill-opacity:1;fill-rule:nonzero;stroke:none"
         id="path3794"
         inkscape:connector-curvature="0" /></g><g
       id="g3796"
       transform="translate(136.3207,105.884)"
       style="fill:#000000"><path
         d="m 0,0 c -0.378,0.339 -0.736,0.705 -1.104,1.056 l -1.134,-0.743 1.216,-1.005 c 0.41,-0.329 0.835,-0.636 1.253,-0.955 l 2.52,-1.897 0.678,0.505 -2.289,2.027 z"
         style="fill:#000000;fill-opacity:1;fill-rule:nonzero;stroke:none"
         id="path3798"
         inkscape:connector-curvature="0" /></g><g
       id="g3800"
       transform="translate(109.0456,128.2014)"
       style="fill:#000000"><path
         d="m 0,0 -1.844,1.028 c 0.392,-1.516 0.758,-3.081 1.208,-4.59 L 0.711,-4.211 0.323,-2.12 C 0.199,-1.423 0.106,-0.703 0,0"
         style="fill:#000000;fill-opacity:1;fill-rule:nonzero;stroke:none"
         id="path3802"
         inkscape:connector-curvature="0" /></g><g
       id="g3804"
       transform="translate(61.5237,274.5878)"
       style="fill:#000000"><path
         d="M 0,0 -0.739,-0.187 -0.905,-1.77 c -0.049,-0.528 -0.07,-1.06 -0.105,-1.59 l -0.187,-3.179 1.026,0.334 C -0.14,-4.141 -0.16,-2.061 0,0"
         style="fill:#000000;fill-opacity:1;fill-rule:nonzero;stroke:none"
         id="path3806"
         inkscape:connector-curvature="0" /></g><g
       id="g3808"
       transform="translate(66.8711,220.5591)"
       style="fill:#000000"><path
         d="M 0,0 C 0.003,-0.003 0.1,-0.122 0.1,-0.122 0.075,-0.045 0.051,0.031 0.027,0.108 0.018,0.072 0.009,0.037 0,0"
         style="fill:#000000;fill-opacity:1;fill-rule:nonzero;stroke:none"
         id="path3810"
         inkscape:connector-curvature="0" /></g><g
       id="g3812"
       transform="translate(65.3088,225.6748)"
       style="fill:#000000"><path
         d="M 0,0 C 0.651,-2.05 1.124,-3.542 1.589,-5.008 2.181,-2.619 2.153,-2.612 0,0"
         style="fill:#000000;fill-opacity:1;fill-rule:nonzero;stroke:none"
         id="path3814"
         inkscape:connector-curvature="0" /></g><g
       id="g3816"
       transform="translate(181.0707,421.7724)"
       style="fill:#000000"><path
         d="M 0,0 1.211,0.448 C 1.616,0.594 2.028,0.716 2.437,0.85 L 2.058,1.324 C 1.211,1.056 0.386,0.716 -0.44,0.4 -1.264,0.08 -2.084,-0.239 -2.893,-0.553 c -0.13,-0.167 -0.232,-0.298 -0.334,-0.43 0.268,0.029 0.559,0.007 0.801,0.095 z"
         style="fill:#000000;fill-opacity:1;fill-rule:nonzero;stroke:none"
         id="path3818"
         inkscape:connector-curvature="0" /></g><g
       id="g3820"
       transform="translate(93.8492,312.6333)"
       style="fill:#000000"><path
         d="M 0,0 C 0.272,0.551 0.54,1.103 0.85,1.635 L 0.193,1.904 C -0.055,1.336 -0.258,0.746 -0.468,0.161 l -0.631,-1.754 0.28,-0.059 z"
         style="fill:#000000;fill-opacity:1;fill-rule:nonzero;stroke:none"
         id="path3822"
         inkscape:connector-curvature="0" /></g><g
       id="g3824"
       transform="translate(100.7995,330.7054)"
       style="fill:#000000"><path
         d="m 0,0 c 0.051,0.06 0.102,0.119 0.151,0.179 0,0.001 0,0.004 0.001,0.009 C 0.163,0.202 0.175,0.215 0.186,0.229 0.18,0.261 0.174,0.292 0.169,0.325 0.112,0.217 0.056,0.108 0,0"
         style="fill:#000000;fill-opacity:1;fill-rule:nonzero;stroke:none"
         id="path3826"
         inkscape:connector-curvature="0" /></g><g
       id="g3828"
       transform="translate(97.8943,324.7065)"
       style="fill:#000000"><path
         d="M 0,0 C 0.642,1.393 1.17,2.54 1.642,3.563 2.097,4.44 2.504,5.225 2.905,5.999 2.299,5.287 1.545,4.633 0.946,3.781 0.332,2.839 -0.113,1.67 0,0"
         style="fill:#000000;fill-opacity:1;fill-rule:nonzero;stroke:none"
         id="path3830"
         inkscape:connector-curvature="0" /></g><g
       id="g3832"
       transform="translate(313.8456,428.6183)"
       style="fill:#000000"><path
         d="m 0,0 0.066,-0.098 c 0.008,0.001 0.017,0.002 0.026,0.003 z"
         style="fill:#000000;fill-opacity:1;fill-rule:nonzero;stroke:none"
         id="path3834"
         inkscape:connector-curvature="0" /></g><g
       id="g3836"
       transform="translate(315.9037,424.5693)"
       style="fill:#000000"><path
         d="M 0,0 C 0.005,-0.017 0.011,-0.033 0.016,-0.049 L 0.079,-0.061 Z"
         style="fill:#000000;fill-opacity:1;fill-rule:nonzero;stroke:none"
         id="path3838"
         inkscape:connector-curvature="0" /></g><g
       id="g3840"
       transform="translate(437.6295,256.8469)"
       style="fill:#000000"><path
         d="M 0,0 C 0.168,1.134 0.337,2.272 0.515,3.473 0.558,3.774 0.603,4.079 0.648,4.389 0.68,4.7 0.714,5.015 0.748,5.336 0.814,5.98 0.883,6.647 0.955,7.346 -0.243,7.362 -0.841,7.368 -1.502,6.813 -1.833,6.537 -2.179,6.12 -2.624,5.5 -2.847,5.19 -3.094,4.829 -3.377,4.41 -3.675,3.991 -4.013,3.516 -4.398,2.973 -3.446,2.793 -2.581,2.851 -1.847,2.425 -1.09,1.987 -1.784,-1.106 0,0"
         style="fill:#000000;fill-opacity:1;fill-rule:nonzero;stroke:none"
         id="path3842"
         inkscape:connector-curvature="0" /></g><g
       id="g3844"
       transform="translate(78.8857,304.0928)"
       style="fill:#000000"><path
         d="m 0,0 c -0.768,-2.391 0.497,-3.132 1.955,-3.585 0.186,0.921 0.415,1.759 0.628,2.565 0.212,0.805 0.416,1.577 0.62,2.349 L 2.477,2.368 C 1.623,1.602 0.311,0.991 0,0"
         style="fill:#000000;fill-opacity:1;fill-rule:nonzero;stroke:none"
         id="path3846"
         inkscape:connector-curvature="0" /></g><g
       id="g3848"
       transform="translate(437.098,226.762)"
       style="fill:#000000"><path
         d="m 0,0 c -0.358,-0.302 -0.681,-0.762 -1.039,-1.336 -0.362,-0.573 -0.73,-1.266 -1.12,-2.045 1.666,0.053 2.499,0.086 3.083,0.466 0.578,0.383 0.941,1.108 1.532,2.593 C 1.482,0.595 0.707,0.605 0,0"
         style="fill:#000000;fill-opacity:1;fill-rule:nonzero;stroke:none"
         id="path3850"
         inkscape:connector-curvature="0" /></g><g
       id="g3852"
       transform="translate(324.9328,422.3387)"
       style="fill:#000000"><path
         d="M 0,0 C -1.241,0.679 -2.091,1.143 -2.933,1.603 -3.862,0.837 -4.794,0.063 -6.127,-1.075 -3.736,-0.631 -2.145,-0.356 0,0"
         style="fill:#000000;fill-opacity:1;fill-rule:nonzero;stroke:none"
         id="path3854"
         inkscape:connector-curvature="0" /></g><g
       id="g3856"
       transform="translate(315.9828,424.5081)"
       style="fill:#000000"><path
         d="M 0,0 -0.016,0.056 C -0.037,0.058 -0.058,0.06 -0.079,0.062 Z"
         style="fill:#000000;fill-opacity:1;fill-rule:nonzero;stroke:none"
         id="path3858"
         inkscape:connector-curvature="0" /></g><g
       id="g3860"
       transform="translate(321.8975,424.0053)"
       style="fill:#000000"><path
         d="M 0,0 C -0.47,0.364 -0.944,0.724 -1.428,1.056 -1.935,1.387 -2.461,1.671 -3.003,1.907 -4.055,2.358 -5.185,2.59 -6.441,2.4 L -5.93,0.559 C -3.962,0.399 -1.962,0.27 0,0"
         style="fill:#000000;fill-opacity:1;fill-rule:nonzero;stroke:none"
         id="path3862"
         inkscape:connector-curvature="0" /></g><g
       id="g3864"
       transform="translate(321.9543,423.9666)"
       style="fill:#000000"><path
         d="M 0,0 0.045,-0.025 C 0.062,-0.01 0.08,0.004 0.097,0.018 0.046,0.026 -0.006,0.032 -0.057,0.039 -0.04,0.026 -0.022,0.012 -0.005,-0.001 Z"
         style="fill:#000000;fill-opacity:1;fill-rule:nonzero;stroke:none"
         id="path3866"
         inkscape:connector-curvature="0" /></g><g
       id="g3868"
       transform="translate(214.1256,428.1955)"
       style="fill:#000000"><path
         d="m 0,0 -0.29,0.647 -2.585,-0.92 0.283,-0.539 z"
         style="fill:#000000;fill-opacity:1;fill-rule:nonzero;stroke:none"
         id="path3870"
         inkscape:connector-curvature="0" /></g><g
       id="g3872"
       transform="translate(431.9745,228.7109)"
       style="fill:#000000"><path
         d="M 0,0 1.549,-2.402 2.251,-1.465 0.866,1.152 Z"
         style="fill:#000000;fill-opacity:1;fill-rule:nonzero;stroke:none"
         id="path3874"
         inkscape:connector-curvature="0" /></g><g
       id="g3876"
       transform="translate(314.4702,430.296)"
       style="fill:#000000"><path
         d="m 0,0 -0.484,-1.612 1.748,0.78 z"
         style="fill:#000000;fill-opacity:1;fill-rule:nonzero;stroke:none"
         id="path3878"
         inkscape:connector-curvature="0" /></g><g
       id="g3880"
       transform="translate(313.8438,428.6204)"
       style="fill:#000000"><path
         d="m 0,0 c 0.002,-0.002 0.094,-0.097 0.094,-0.097 l 0.048,0.16 z"
         style="fill:#000000;fill-opacity:1;fill-rule:nonzero;stroke:none"
         id="path3882"
         inkscape:connector-curvature="0" /></g><g
       id="g3884"
       transform="translate(431.2826,265.1776)"
       style="fill:#000000"><path
         d="m 0,0 0.022,-1.105 1.934,-0.212 0.049,0.794 z"
         style="fill:#000000;fill-opacity:1;fill-rule:nonzero;stroke:none"
         id="path3886"
         inkscape:connector-curvature="0" /></g><g
       id="g3888"
       transform="translate(408.4117,148.3422)"
       style="fill:#000000"><path
         d="m 0,0 c -0.691,-0.574 -1.36,-1.196 -2.033,-1.804 l 0.576,-0.94 c 0.617,0.732 1.244,1.457 1.825,2.219 C 0.41,-0.471 0.04,0.033 0,0"
         style="fill:#000000;fill-opacity:1;fill-rule:nonzero;stroke:none"
         id="path3890"
         inkscape:connector-curvature="0" /></g><g
       id="g3892"
       style="fill:#000000"><g
         id="g3894"
         style="fill:#000000" /><g
         id="g3950"
         style="fill:#000000"><g
           clip-path="url(#clipPath3898)"
           id="g3948"
           style="opacity:0.71000701;fill:#000000"><g
             transform="translate(366.869,394.3524)"
             id="g3902"
             style="fill:#000000"><path
               d="m 0,0 c 0.079,-0.538 0.156,-1.076 0.241,-1.616 -0.372,0.022 -0.735,0.055 -1.09,0.102 -0.054,-0.181 -0.095,-0.365 -0.115,-0.551 -0.072,-0.646 0.064,-1.325 0.454,-2.06 0.192,-0.369 0.457,-0.742 0.775,-1.151 0.314,-0.414 0.695,-0.846 1.149,-1.301 0.494,-0.494 0.209,-1.701 0.276,-2.569 1.612,-0.055 2.263,-0.933 1.753,-2.536 l -1.681,2.501 c -0.218,-0.758 -0.436,-1.517 -0.598,-2.081 0.546,-0.499 1.081,-0.989 1.606,-1.469 0.132,-0.122 0.263,-0.241 0.395,-0.362 0.145,0.384 0.424,0.729 0.829,1.009 0.28,-0.182 0.548,-0.368 0.812,-0.556 L 1.064,1.065 C 0.663,0.712 0.293,0.359 0,0"
               style="fill:#000000;fill-opacity:1;fill-rule:nonzero;stroke:none"
               id="path3900"
               inkscape:connector-curvature="0" /></g><g
             transform="translate(373.2462,374.4232)"
             id="g3906"
             style="fill:#000000"><path
               d="m 0,0 c -0.061,-0.246 -0.121,-0.489 -0.181,-0.731 0.069,-0.022 0.139,-0.045 0.21,-0.068 C 0.027,-0.531 0.019,-0.265 0,0"
               style="fill:#000000;fill-opacity:1;fill-rule:nonzero;stroke:none"
               id="path3904"
               inkscape:connector-curvature="0" /></g><g
             transform="translate(370.8509,375.8601)"
             id="g3910"
             style="fill:#000000"><path
               d="M 0,0 C 0.207,0.21 0.409,0.427 0.608,0.649 0.291,0.649 -0.027,0.648 -0.349,0.647 -0.235,0.433 -0.118,0.217 0,0"
               style="fill:#000000;fill-opacity:1;fill-rule:nonzero;stroke:none"
               id="path3908"
               inkscape:connector-curvature="0" /></g><g
             transform="translate(74.7867,269.955)"
             id="g3914"
             style="fill:#000000"><path
               d="M 0,0 -0.213,0.78 C -0.406,0.544 -0.607,0.282 -0.822,-0.025 -0.527,-0.016 -0.258,-0.008 0,0"
               style="fill:#000000;fill-opacity:1;fill-rule:nonzero;stroke:none"
               id="path3912"
               inkscape:connector-curvature="0" /></g><g
             transform="translate(76.5824,227.9534)"
             id="g3918"
             style="fill:#000000"><path
               d="m 0,0 c -0.175,2.288 -0.362,4.739 -0.577,7.558 0.926,0.214 2.376,0.648 3.851,0.843 0.823,0.109 1.532,0.436 2.029,1.044 0.499,0.609 0.756,1.496 0.607,2.745 -0.281,2.371 -1.6,2.247 -3.077,1.642 -1.046,-0.431 -3.262,0.051 -3.367,0.694 -0.246,1.498 -0.679,2.646 -1.228,3.598 -0.517,0.952 -1.141,1.706 -1.821,2.411 -0.953,0.993 -1.995,1.895 -2.908,3.116 L 0.023,-0.204 C 0.016,-0.135 0.007,-0.069 0,0"
               style="fill:#000000;fill-opacity:1;fill-rule:nonzero;stroke:none"
               id="path3916"
               inkscape:connector-curvature="0" /></g><g
             transform="translate(105.5548,157.0275)"
             id="g3922"
             style="fill:#000000"><path
               d="m 0,0 c -0.168,0.257 -0.338,0.516 -0.507,0.773 0.122,-0.014 0.246,0 0.368,-0.007 L -22.421,82.36 c 0.213,-4.463 0.601,-8.947 1.209,-13.446 -0.144,0 -0.268,-0.039 -0.366,-0.129 -0.033,-0.03 -0.065,-0.056 -0.098,-0.085 -0.535,0.799 -1.007,1.506 -1.447,2.163 -0.482,0.743 -0.881,1.432 -1.304,2.124 l -0.99,-0.455 c -0.027,-0.472 -0.053,-0.945 -0.081,-1.438 -0.023,-0.492 -0.015,-1.003 -0.025,-1.556 -0.003,-0.444 -0.007,-0.915 -0.011,-1.421 -1.061,0.405 -2.108,1.088 -3.136,1.583 l 2.146,-7.861 c 0.013,0.013 0.025,0.026 0.038,0.038 1.746,-0.492 3.042,-1.554 4.072,-2.997 0.643,-0.864 1.211,-1.864 1.732,-2.957 -0.561,0.338 -1.123,0.68 -1.685,1.026 l -0.286,-1.297 c 1.001,-0.725 1.975,-1.441 2.994,-2.136 0.038,-0.099 0.076,-0.196 0.114,-0.296 0.076,-0.201 0.172,-0.394 0.279,-0.591 -0.272,0.147 -0.581,0.316 -0.958,0.524 0.125,-0.469 0.247,-0.928 0.367,-1.38 -0.526,-0.103 -1.079,-0.154 -1.652,-0.17 -0.969,1.794 -2.113,3.399 -3.233,5.174 -0.099,-0.203 -0.167,-0.406 -0.233,-0.609 l 3.268,-11.966 c 0.2,0.129 0.398,0.261 0.599,0.39 1.227,-2.114 1.481,-2.528 0.884,-4.607 -0.166,0.62 -0.332,1.262 -0.466,1.951 -0.101,-0.127 -0.202,-0.237 -0.302,-0.351 l 2.887,-10.573 c 0.084,0.103 0.153,0.201 0.246,0.308 0.024,-0.023 0.046,-0.045 0.07,-0.067 -0.012,0.036 -0.023,0.07 -0.035,0.106 0.205,0.234 0.427,0.474 0.671,0.723 0.625,0.636 0.997,1.317 1.124,2.134 0.196,-0.336 0.404,-0.664 0.638,-0.978 -0.11,0.272 -0.219,0.54 -0.325,0.803 -0.091,0.252 -0.179,0.5 -0.267,0.743 0.014,0.702 -0.124,1.502 -0.417,2.449 -0.425,1.509 -0.54,3.107 -0.506,4.718 1.265,-2.316 1.892,-4.999 2.916,-7.482 0.484,-1.249 1.01,-2.462 1.664,-3.567 0.326,-0.553 0.685,-1.078 1.086,-1.567 0.388,-0.44 0.817,-0.846 1.286,-1.217 0.008,-0.019 0.016,-0.038 0.024,-0.057 -0.914,-0.534 -1.828,-1.068 -2.812,-1.643 0.021,-0.443 0.042,-0.908 0.065,-1.389 -1.435,-0.773 -2.899,0.074 -4.274,1.755 L -9.689,0.193 c 0.112,-0.189 0.229,-0.385 0.358,-0.585 -0.021,-0.163 -0.043,-0.33 -0.064,-0.493 l 0.582,-2.129 c 0.876,-1.176 1.751,-2.349 2.607,-3.496 1.166,-1.412 2.317,-2.805 3.457,-4.185 0.567,-0.689 1.132,-1.375 1.695,-2.059 0.588,-0.662 1.175,-1.322 1.761,-1.98 1.168,-1.318 2.321,-2.638 3.457,-3.971 0.475,-0.532 0.965,-1.05 1.445,-1.577 L 0.12,-0.184 C 0.08,-0.123 0.041,-0.061 0,0"
               style="fill:#000000;fill-opacity:1;fill-rule:nonzero;stroke:none"
               id="path3920"
               inkscape:connector-curvature="0" /></g><g
             transform="translate(62.3956,291.6198)"
             id="g3926"
             style="fill:#000000"><path
               d="M 0,0 C 0.564,4.278 1.61,6.917 3.792,9.823 L 3.011,12.686 C 2.365,11.379 1.712,10.079 1.046,8.783 0.435,7.638 -0.083,6.462 -0.628,5.29 -1.169,4.115 -1.708,2.934 -2.237,1.74 -2.507,1.127 -2.851,0.44 -3.167,-0.239 l 1.443,-5.283 c 0.206,0.571 0.42,1.14 0.627,1.699 C -0.6,-2.475 -0.173,-1.174 0,0"
               style="fill:#000000;fill-opacity:1;fill-rule:nonzero;stroke:none"
               id="path3924"
               inkscape:connector-curvature="0" /></g><g
             transform="translate(66.0328,271.5681)"
             id="g3930"
             style="fill:#000000"><path
               d="m 0,0 c 0.161,0.586 0.36,1.168 0.536,1.758 0.356,1.176 0.716,2.367 1.082,3.579 0.374,1.209 0.7,2.447 1.13,3.691 0.435,1.239 0.881,2.506 1.339,3.808 -1.151,5.072 -1.587,5.065 -4.3,-0.937 -0.416,-0.93 -0.813,-1.872 -1.164,-2.83 C -1.698,8.105 -1.991,7.13 -2.263,6.145 -2.398,5.643 -2.531,5.139 -2.659,4.634 l 1.952,-7.148 c 0.074,0.255 0.154,0.506 0.226,0.763 C -0.321,-1.17 -0.161,-0.586 0,0"
               style="fill:#000000;fill-opacity:1;fill-rule:nonzero;stroke:none"
               id="path3928"
               inkscape:connector-curvature="0" /></g><g
             transform="translate(71.1214,277.3332)"
             id="g3934"
             style="fill:#000000"><path
               d="m 0,0 c -0.273,-1.402 -0.515,-2.641 -0.756,-3.88 l 0.948,-0.261 c 0.531,2.078 0.797,3.111 0.891,4.232 0.049,0.559 0.051,1.14 0.029,1.882 L 0.727,3.381 C 0.631,2.988 0.538,2.606 0.448,2.241 0.276,1.443 0.14,0.7 0,0"
               style="fill:#000000;fill-opacity:1;fill-rule:nonzero;stroke:none"
               id="path3932"
               inkscape:connector-curvature="0" /></g><g
             transform="translate(109.0548,128.2014)"
             id="g3938"
             style="fill:#000000"><path
               d="m 0,0 -1.844,1.029 c 0.392,-1.517 0.758,-3.082 1.208,-4.591 L 0.711,-4.211 0.323,-2.12 C 0.199,-1.423 0.106,-0.703 0,0"
               style="fill:#000000;fill-opacity:1;fill-rule:nonzero;stroke:none"
               id="path3936"
               inkscape:connector-curvature="0" /></g><g
             transform="translate(368.4915,395.8997)"
             id="g3942"
             style="fill:#000000"><path
               d="m 0,0 c -0.239,-0.005 -0.462,-0.01 -0.686,-0.015 l 0.127,-0.467 C -0.376,-0.321 -0.202,-0.161 0,0"
               style="fill:#000000;fill-opacity:1;fill-rule:nonzero;stroke:none"
               id="path3940"
               inkscape:connector-curvature="0" /></g><g
             transform="translate(422.6808,203.4642)"
             id="g3946"
             style="fill:#000000"><path
               d="M 0,0 C -0.013,0.851 -0.184,1.764 -0.473,2.734 -0.479,2.753 -0.484,2.772 -0.49,2.79 -0.09,4.313 0.315,5.819 0.775,7.215 1.145,6.796 1.648,6.33 2.181,5.646 c 0.121,0.502 0.233,0.927 0.332,1.292 0.086,0.37 0.158,0.68 0.219,0.945 0.12,0.531 0.182,0.888 0.151,1.205 -0.091,0.924 -0.317,1.802 -0.597,2.613 0.171,0.774 0.192,1.576 0.137,2.383 0.187,0.606 0.4,1.167 0.654,1.662 l -38.055,139.355 c -0.125,0.105 -0.251,0.209 -0.376,0.31 -1.366,1.143 -2.821,2.035 -3.684,3.902 -0.241,0.511 -0.326,0.996 -0.608,1.504 -0.702,1.245 -1.385,2.524 -2.141,3.747 -0.313,0.498 -0.626,0.995 -0.939,1.493 -0.836,2.484 -1.791,4.788 -3.1,6.894 -1.304,1.987 -2.989,3.743 -5.179,5.297 L -1.222,-4.055 c 0.338,0.535 0.629,1.083 0.825,1.663 C -0.141,-1.64 -0.007,-0.846 0,0"
               style="fill:#000000;fill-opacity:1;fill-rule:nonzero;stroke:none"
               id="path3944"
               inkscape:connector-curvature="0" /></g></g></g></g></g></g><text
   transform="matrix(1.7283926,-3.1272437e-4,-9.3421469e-4,-0.57857208,0,0)"
   style="font-variant:normal;font-weight:900;font-stretch:normal;font-size:52.34343338px;font-family:'Raleway Black';-inkscape-font-specification:Raleway-Black;writing-mode:lr-tb;fill:#ffffff;fill-opacity:1;fill-rule:nonzero;stroke:none;stroke-width:0.57857215"
   id="text3954"
   x="78.566032"
   y="-128.73518"><tspan
     x="78.566032"
     y="-128.73518"
     sodipodi:role="line"
     id="tspan3952"
     style="stroke-width:0.57857215">WEB</tspan></text>


<text
   transform="matrix(1.7283926,-3.1221725e-4,-9.3269975e-4,-0.57857208,0,0)"
   style="font-variant:normal;font-weight:500;font-stretch:normal;font-size:21.97920609px;font-family:'Raleway Medium';-inkscape-font-specification:Raleway-Medium;writing-mode:lr-tb;fill:#ffffff;fill-opacity:1;fill-rule:nonzero;stroke:none;stroke-width:0.57857215"
   id="text3958"
   x="114.24028"
   y="-169.34589"><tspan
     x="114.24028"
     y="-169.34589"
     sodipodi:role="line"
     id="tspan3956"
     style="stroke-width:0.57857215">CODE</tspan></text>


<g
   id="g4000"
   style="fill:#ffffff"
   transform="matrix(1,0,0,0.33474572,12.711865,-1.0638164)"><g
     id="g4002"
     clip-path="url(#clipPath4006)"
     style="fill:#ffffff"><g
       id="g4008"
       transform="translate(245.4757,347.2896)"
       style="fill:#ffffff"><path
         d="m 0,0 2.726,-5.524 6.096,-0.886 -4.411,-4.3 1.041,-6.071 -5.452,2.867 -5.452,-2.867 1.041,6.071 -4.411,4.3 6.096,0.886 z"
         style="fill:#ffffff;fill-opacity:1;fill-rule:nonzero;stroke:none"
         id="path4010"
         inkscape:connector-curvature="0" /></g><g
       id="g4012"
       transform="translate(265.5384,342.0322)"
       style="fill:#ffffff"><path
         d="M 0,0 1.424,-2.886 4.609,-3.349 2.305,-5.595 2.849,-8.767 0,-7.269 l -2.849,-1.498 0.544,3.172 -2.304,2.246 3.185,0.463 z"
         style="fill:#ffffff;fill-opacity:1;fill-rule:nonzero;stroke:none"
         id="path4014"
         inkscape:connector-curvature="0" /></g><g
       id="g4016"
       transform="translate(225.6137,342.0322)"
       style="fill:#ffffff"><path
         d="M 0,0 1.424,-2.886 4.609,-3.349 2.305,-5.595 2.849,-8.767 0,-7.269 l -2.849,-1.498 0.544,3.172 -2.304,2.246 3.185,0.463 z"
         style="fill:#ffffff;fill-opacity:1;fill-rule:nonzero;stroke:none"
         id="path4018"
         inkscape:connector-curvature="0" /></g></g></g><text
   transform="scale(1.3600935,-0.73524357)"
   style="font-variant:normal;font-weight:900;font-stretch:normal;font-size:6.63974667px;font-family:'Raleway Black';-inkscape-font-specification:Raleway-Black;writing-mode:lr-tb;fill:#ffffff;fill-opacity:1;fill-rule:nonzero;stroke:none;stroke-width:0.45528549"
   id="text4028"
   x="105.20255"
   y="-90.008537"><tspan
     sodipodi:role="line"
     id="tspan4026"
     x="105.20255"
     y="-90.008537"
     style="fill:#ffffff;stroke-width:0.45528549">https://codewebagence.000webhostapp.com</tspan></text>


</g></svg>