<?xml version="1.0" encoding="utf-8"?>
<!-- Generator: Adobe Illustrator 21.0.0, SVG Export Plug-In . SVG Version: 6.00 Build 0)  -->
<svg version="1.1" id="Calque_1" xmlns="http://www.w3.org/2000/svg" xmlns:xlink="http://www.w3.org/1999/xlink" x="0px" y="0px"
	 viewBox="0 0 512 512" style="enable-background:new 0 0 512 512;" xml:space="preserve">
<style type="text/css">
	.st0{fill:#A8DBA8;}
	.st1{fill:#CFF09E;}
	.st2{fill:#79BD9A;}
	.st3{fill:#3B8686;}
</style>
<path class="st0" d="M85.3,179.2h341.3V384H85.3V179.2z"/>
<path class="st1" d="M426.7,179.2H256l170.7,170.7V179.2z"/>
<path class="st2" d="M426.7,179.2V384H85.3V179.2h76.8L128,145.1H68.3c-9.4,0-17.1,7.6-17.1,17.1v238.9c0,9.4,7.6,17.1,17.1,17.1
	h375.5c9.4,0,17.1-7.6,17.1-17.1V179.2H426.7z"/>
<path class="st2" d="M332.8,145.1H196.3v34.1h170.7C348.1,179.2,332.8,163.9,332.8,145.1z"/>
<path class="st0" d="M460.8,179.2h-34.1v145.1l34.1,34.1V179.2z"/>
<path class="st0" d="M332.8,145.1h-85.3l34.1,34.1h85.3C348.1,179.2,332.8,163.9,332.8,145.1z"/>
<path class="st2" d="M196.3,418.1h119.5v51.2H196.3V418.1z"/>
<path class="st2" d="M136.5,469.3h238.9c9.4,0,17.1,7.6,17.1,17.1c0,9.4-7.6,17.1-17.1,17.1H136.5c-9.4,0-17.1-7.6-17.1-17.1
	C119.5,477,127.1,469.3,136.5,469.3z"/>
<path class="st0" d="M375.5,469.3h-93.9l34.1,34.1h59.7c9.4,0,17.1-7.6,17.1-17.1C392.5,477,384.9,469.3,375.5,469.3z"/>
<path class="st1" d="M230.4,290.1v-68.3l68.3,34.1L230.4,290.1z"/>
<path class="st1" d="M366.9,8.5h102.4c18.8,0,34.1,15.3,34.1,34.1v102.4c0,18.9-15.3,34.1-34.1,34.1H366.9
	c-18.8,0-34.1-15.3-34.1-34.1V42.7C332.8,23.8,348.1,8.5,366.9,8.5z"/>
<path class="st0" d="M473.6,162.1c-72.2,0-132.7-54.6-140.1-126.4c-0.5,2.3-0.7,4.6-0.7,7v102.4c0,18.9,15.3,34.1,34.1,34.1h102.4
	c13.2,0,25.2-7.7,30.8-19.6C491.4,161.3,482.5,162.1,473.6,162.1z"/>
<path class="st0" d="M213.3,8.5H25.6c-9.4,0-17.1,7.6-17.1,17.1V128c0,9.4,7.6,17.1,17.1,17.1H128l68.3,68.3v-68.3h17.1
	c9.4,0,17.1-7.6,17.1-17.1V25.6C230.4,16.2,222.8,8.5,213.3,8.5z"/>
<path class="st1" d="M213.3,8.5H25.6c-9.4,0-17.1,7.6-17.1,17.1v12.8l106.7,106.7H128l68.3,68.3v-68.3h17.1
	c9.4,0,17.1-7.6,17.1-17.1V25.6C230.4,16.2,222.8,8.5,213.3,8.5z"/>
<g>
	<path class="st3" d="M128,349.9h25.6v8.5c0,4.7,3.8,8.5,8.5,8.5c4.7,0,8.5-3.8,8.5-8.5v-8.5h204.8c4.7,0,8.5-3.8,8.5-8.5
		c0-4.7-3.8-8.5-8.5-8.5H170.7v-8.5c0-4.7-3.8-8.5-8.5-8.5c-4.7,0-8.5,3.8-8.5,8.5v8.5H128c-4.7,0-8.5,3.8-8.5,8.5
		C119.5,346,123.3,349.9,128,349.9z"/>
	<path class="st3" d="M225.9,297.4c2.5,1.6,5.7,1.7,8.3,0.4l68.3-34.1c2.9-1.4,4.7-4.4,4.7-7.6c0-3.2-1.8-6.2-4.7-7.6l-68.3-34.1
		c-2.6-1.3-5.8-1.2-8.3,0.4c-2.5,1.6-4,4.3-4,7.3v68.3C221.9,293.1,223.4,295.8,225.9,297.4z M238.9,235.7l40.7,20.3l-40.7,20.3
		V235.7z"/>
	<path class="st3" d="M128,264.5h8.5v25.6c0,4.7,3.8,8.5,8.5,8.5s8.5-3.8,8.5-8.5v-25.6h8.5c4.7,0,8.5-3.8,8.5-8.5s-3.8-8.5-8.5-8.5
		h-8.5v-8.5c0-4.7,3.8-8.5,8.5-8.5c4.7,0,8.5-3.8,8.5-8.5c0-4.7-3.8-8.5-8.5-8.5c-14.1,0-25.6,11.5-25.6,25.6v8.5H128
		c-4.7,0-8.5,3.8-8.5,8.5S123.3,264.5,128,264.5z"/>
	<path class="st3" d="M358.4,298.7c4.7,0,8.5-3.8,8.5-8.5v-42.7c0-4.7-3.8-8.5-8.5-8.5s-8.5,3.8-8.5,8.5v42.7
		C349.9,294.8,353.7,298.7,358.4,298.7z"/>
	<path class="st3" d="M366.9,221.9c0,4.7-3.8,8.5-8.5,8.5s-8.5-3.8-8.5-8.5c0-4.7,3.8-8.5,8.5-8.5S366.9,217.2,366.9,221.9z"/>
	<path class="st3" d="M469.3,0H366.9c-23.6,0-42.6,19.1-42.7,42.7v93.9h-86.9c1-2.7,1.5-5.6,1.6-8.5V25.6
		c0-14.1-11.5-25.6-25.6-25.6H25.6C11.5,0,0,11.5,0,25.6V128c0,14.1,11.5,25.6,25.6,25.6h18.6c-1,2.7-1.5,5.6-1.6,8.5v238.9
		c0,14.1,11.5,25.6,25.6,25.6h119.5v34.1h-51.2c-14.1,0-25.6,11.5-25.6,25.6c0,14.1,11.5,25.6,25.6,25.6h238.9
		c14.1,0,25.6-11.5,25.6-25.6c0-14.1-11.5-25.6-25.6-25.6h-51.2v-34.1h119.5c14.1,0,25.6-11.5,25.6-25.6V187.7
		c23.6,0,42.6-19.1,42.7-42.7V42.7C512,19.1,492.9,0,469.3,0z M190.2,219.4c0.7,0.7,1.6,1.3,2.6,1.7c0.3,0.1,0.6,0.2,0.9,0.3
		c0.7,0.2,1.4,0.4,2.1,0.4c0.2,0,0.4,0.1,0.6,0.1s0.2-0.1,0.3-0.1c1,0,2-0.2,2.9-0.6c3.2-1.4,5.2-4.5,5.2-7.9v-25.6h213.3v187.7
		H93.9V187.7h64.7L190.2,219.4z M325.1,153.6c0,0.2,0.1,0.3,0.1,0.4c0.5,2.4,1.3,4.8,2.2,7.1c0.3,0.8,0.8,1.6,1.2,2.3
		c0.7,1.6,1.6,3.1,2.5,4.6c0.5,0.9,1.2,1.6,1.8,2.4l0.1,0.2H204.8v-17H325.1z M17.1,128V25.6c0-4.7,3.8-8.5,8.5-8.5h187.7
		c4.7,0,8.5,3.8,8.5,8.5V128c0,4.7-3.8,8.5-8.5,8.5h-17.1c-4.7,0-8.5,3.8-8.5,8.5v47.7L134,139c-1.6-1.6-3.8-2.5-6-2.5H25.6
		C20.9,136.5,17.1,132.7,17.1,128z M384,486.4c0,4.7-3.8,8.5-8.5,8.5H136.5c-4.7,0-8.5-3.8-8.5-8.5s3.8-8.5,8.5-8.5h238.9
		C380.2,477.9,384,481.7,384,486.4z M307.2,460.8H204.8v-34.1h102.4V460.8z M452.3,401.1c0,4.7-3.8,8.5-8.5,8.5H68.3
		c-4.7,0-8.5-3.8-8.5-8.5V162.1c0-4.7,3.8-8.5,8.5-8.5h56.2l17.1,17.1H85.3c-4.7,0-8.5,3.8-8.5,8.5V384c0,4.7,3.8,8.5,8.5,8.5h341.3
		c4.7,0,8.5-3.8,8.5-8.5V187.7h17.1V401.1z M494.9,145.1c0,14.1-11.5,25.6-25.6,25.6H366.9c-14.1,0-25.6-11.5-25.6-25.6V42.7
		c0-14.1,11.5-25.6,25.6-25.6h102.4c14.1,0,25.6,11.5,25.6,25.6V145.1z"/>
	<path class="st3" d="M418.1,51.2c-23.6,0-42.7,19.1-42.7,42.7s19.1,42.7,42.7,42.7s42.7-19.1,42.7-42.7
		C460.8,70.3,441.7,51.2,418.1,51.2z M418.1,119.5c-14.1,0-25.6-11.5-25.6-25.6s11.5-25.6,25.6-25.6s25.6,11.5,25.6,25.6
		S432.3,119.5,418.1,119.5z"/>
	<path class="st3" d="M85.3,51.2h85.3c4.7,0,8.5-3.8,8.5-8.5s-3.8-8.5-8.5-8.5H85.3c-4.7,0-8.5,3.8-8.5,8.5S80.6,51.2,85.3,51.2z"/>
	<path class="st3" d="M51.2,85.3h68.3c4.7,0,8.5-3.8,8.5-8.5c0-4.7-3.8-8.5-8.5-8.5H51.2c-4.7,0-8.5,3.8-8.5,8.5
		C42.7,81.5,46.5,85.3,51.2,85.3z"/>
	<path class="st3" d="M170.7,102.4H93.9c-4.7,0-8.5,3.8-8.5,8.5s3.8,8.5,8.5,8.5h76.8c4.7,0,8.5-3.8,8.5-8.5
		S175.4,102.4,170.7,102.4z"/>
	<path class="st3" d="M59.7,102.4h-8.5c-4.7,0-8.5,3.8-8.5,8.5s3.8,8.5,8.5,8.5h8.5c4.7,0,8.5-3.8,8.5-8.5S64.4,102.4,59.7,102.4z"
		/>
	<path class="st3" d="M170.7,68.3h-17.1c-4.7,0-8.5,3.8-8.5,8.5c0,4.7,3.8,8.5,8.5,8.5h17.1c4.7,0,8.5-3.8,8.5-8.5
		C179.2,72.1,175.4,68.3,170.7,68.3z"/>
</g>
</svg>
