<?xml version="1.0" encoding="utf-8"?>
<!-- Generator: Adobe Illustrator 21.0.0, SVG Export Plug-In . SVG Version: 6.00 Build 0)  -->
<svg version="1.1" id="Calque_1" xmlns="http://www.w3.org/2000/svg" xmlns:xlink="http://www.w3.org/1999/xlink" x="0px" y="0px"
	 viewBox="0 0 512 512" style="enable-background:new 0 0 512 512;" xml:space="preserve">
<style type="text/css">
	.st0{fill:#A8DBA8;}
	.st1{fill:#79BD9A;}
	.st2{fill:#CFF09E;}
	.st3{fill:#3B8686;}
</style>
<path class="st0" d="M128.1,111h170.6c18.9,0,34.1,15.3,34.1,34.1v102.4c0,18.8-15.3,34.1-34.1,34.1H128.1
	c-18.8,0-34.1-15.3-34.1-34.1V145.1C93.9,126.3,109.2,111,128.1,111z"/>
<path class="st1" d="M190.2,111c31.6,32.4,83.1,34.3,117,4.3c-1.2-1.3-2.4-2.6-3.8-3.8c-1.6-0.3-3.2-0.5-4.8-0.5H190.2z"/>
<path class="st1" d="M99.7,126.1c29.2,18.5,67.7,11.9,89.2-15.1h-60.8C116.7,111,106.1,116.7,99.7,126.1z"/>
<path class="st1" d="M290.2,264.6c-99,0-179.2-55.4-179.2-123.7c0.1-9.3,1.6-18.6,4.6-27.4c-13,5.1-21.6,17.7-21.6,31.7v102.4
	c0,18.8,15.3,34.1,34.1,34.1h170.6c13.4,0,25.6-7.9,31.1-20.2C316.7,263.5,303.4,264.6,290.2,264.6z"/>
<path class="st0" d="M332.8,162.2h59.7v68.3h-59.7V162.2z"/>
<path class="st2" d="M460.8,264.6l-68.3-34.1v-68.3l68.3-34.1V264.6z"/>
<path class="st0" d="M402.1,157.4l-9.5,4.8v68.3l68.3,34.1v-62.3C430,196,406.8,178.7,402.1,157.4z"/>
<path class="st2" d="M162.2,145.1h136.5v102.4H162.2V145.1z"/>
<path class="st0" d="M179.6,145.1h-17.4v102.4h136.5V230C233.8,225.8,182.7,189.7,179.6,145.1z"/>
<path class="st0" d="M209.1,217.7V175l42.7,21.3L209.1,217.7z"/>
<path class="st2" d="M268.8,8.6c-28.3,0-51.2,22.9-51.2,51.2c0,28.3,22.9,51.2,51.2,51.2c28.3,0,51.2-22.9,51.2-51.2
	C320,31.5,297.1,8.6,268.8,8.6z M268.8,76.9c-9.4,0-17.1-7.6-17.1-17.1s7.6-17.1,17.1-17.1c9.4,0,17.1,7.6,17.1,17.1
	S278.3,76.9,268.8,76.9z"/>
<path class="st0" d="M187.8,76.9c0,18.8-15.3,34.1-34.1,34.1c-18.8,0-34.1-15.3-34.1-34.1s15.3-34.1,34.1-34.1
	C172.5,42.8,187.8,58,187.8,76.9z"/>
<path class="st0" d="M51.3,239h42.7v-85.3H34.2L51.3,239z"/>
<path class="st1" d="M51.3,239h34.1v-76.8L51.3,239z"/>
<path class="st2" d="M268.8,8.6c-28.3,0-51.2,22.9-51.2,51.2c0,28.3,22.9,51.2,51.2,51.2c28.3,0,51.2-22.9,51.2-51.2
	C320,31.5,297.1,8.6,268.8,8.6z M268.8,76.9c-9.4,0-17.1-7.6-17.1-17.1s7.6-17.1,17.1-17.1c9.4,0,17.1,7.6,17.1,17.1
	S278.3,76.9,268.8,76.9z"/>
<path class="st0" d="M187.8,76.9c0,18.8-15.3,34.1-34.1,34.1c-18.8,0-34.1-15.3-34.1-34.1s15.3-34.1,34.1-34.1
	C172.5,42.8,187.8,58,187.8,76.9z"/>
<path class="st2" d="M68.3,315.8h256v153.6h-256V315.8z"/>
<path class="st0" d="M281.6,426.7c-95.2,0-173.7-48.3-186-110.9H68.3v153.6h256v-46C310.2,425.6,295.9,426.7,281.6,426.7z"/>
<path class="st1" d="M68.3,435.2h256v34.1h-256V435.2z"/>
<path class="st0" d="M179.3,401.1v-51.2l51.2,25.6L179.3,401.1z"/>
<path class="st1" d="M221.9,469.3h-51.2l-17.1,34.1H239L221.9,469.3z"/>
<path class="st2" d="M324.3,418.2l68.3,8.5v-93.8l-68.3,8.5V418.2z"/>
<path class="st0" d="M351.8,338l-27.5,3.4v76.8l68.3,8.5v-20.7C370.5,389.6,355.8,365.1,351.8,338z"/>
<path class="st0" d="M409.6,315.8c9.4,0,17.1,7.6,17.1,17.1v93.8c0,9.4-7.6,17.1-17.1,17.1c-9.4,0-17.1-7.6-17.1-17.1v-93.8
	C392.6,323.4,400.2,315.8,409.6,315.8z"/>
<path class="st1" d="M392.6,359v67.7c0,9.4,7.6,17.1,17.1,17.1c9.4,0,17.1-7.6,17.1-17.1v-32C412.2,386.2,400.4,373.8,392.6,359z"/>
<g>
	<path class="st3" d="M162.2,256h136.5c4.7,0,8.5-3.8,8.5-8.5V145.1c0-4.7-3.8-8.5-8.5-8.5H162.2c-4.7,0-8.5,3.8-8.5,8.5v102.4
		C153.7,252.2,157.5,256,162.2,256z M170.7,153.7h119.4V239H170.7V153.7z"/>
	<path class="st3" d="M255.6,188.7l-42.7-21.3c-2.6-1.3-5.8-1.2-8.3,0.4c-2.5,1.6-4,4.3-4,7.3v42.7c0,3,1.5,5.7,4,7.3
		c2.5,1.6,5.7,1.7,8.3,0.4l42.7-21.3c2.9-1.4,4.7-4.4,4.7-7.6S258.5,190.1,255.6,188.7z M217.7,203.8v-15l15.1,7.5L217.7,203.8z"/>
	<path class="st3" d="M136.6,145.1c0,4.7-3.8,8.5-8.5,8.5c-4.7,0-8.5-3.8-8.5-8.5s3.8-8.5,8.5-8.5
		C132.8,136.6,136.6,140.4,136.6,145.1z"/>
	<path class="st3" d="M136.6,179.3c0,4.7-3.8,8.5-8.5,8.5c-4.7,0-8.5-3.8-8.5-8.5s3.8-8.5,8.5-8.5
		C132.8,170.7,136.6,174.6,136.6,179.3z"/>
	<path class="st3" d="M128.1,256c4.7,0,8.5-3.8,8.5-8.5v-25.6c0-4.7-3.8-8.5-8.5-8.5c-4.7,0-8.5,3.8-8.5,8.5v25.6
		C119.5,252.2,123.4,256,128.1,256z"/>
	<path class="st3" d="M268.8,34.2c-14.1,0-25.6,11.5-25.6,25.6s11.5,25.6,25.6,25.6c14.1,0,25.6-11.5,25.6-25.6S283,34.2,268.8,34.2
		z M268.8,68.4c-4.7,0-8.5-3.8-8.5-8.5s3.8-8.5,8.5-8.5c4.7,0,8.5,3.8,8.5,8.5S273.6,68.4,268.8,68.4z"/>
	<path class="st3" d="M162.2,76.9c0,4.7-3.8,8.5-8.5,8.5c-4.7,0-8.5-3.8-8.5-8.5c0-4.7,3.8-8.5,8.5-8.5
		C158.4,68.4,162.2,72.2,162.2,76.9z"/>
	<path class="st3" d="M174.8,408.3c2.5,1.6,5.7,1.7,8.3,0.4l51.2-25.6c2.9-1.4,4.7-4.4,4.7-7.6c0-3.2-1.8-6.2-4.7-7.6l-51.2-25.6
		c-2.6-1.3-5.8-1.2-8.3,0.4c-2.5,1.6-4,4.3-4,7.3v51.2C170.7,404,172.3,406.8,174.8,408.3z M187.8,363.7l23.6,11.8l-23.6,11.8V363.7
		z"/>
	<path class="st3" d="M409.6,307.2c-11.1,0-21,7.3-24.3,17.9l-52.5,6.5v-15.9c0-4.7-3.8-8.5-8.5-8.5h-256c-4.7,0-8.5,3.8-8.5,8.5
		v128H25.7c-4.7,0-8.5-3.8-8.5-8.5V256c0-4.7,3.8-8.5,8.5-8.5h59.7c0,23.5,19.1,42.6,42.7,42.7h170.6c23.5,0,42.6-19.1,42.7-42.7
		V239h49.2l66.5,33.3c2.7,1.3,5.8,1.2,8.3-0.4c2.5-1.6,4-4.3,4-7.3V128.1c0-3-1.5-5.7-4-7.3c-2.5-1.6-5.7-1.7-8.3-0.4l-66.5,33.2
		h-49.2v-8.5c-0.1-19.5-13.4-36.5-32.4-41.3c18.1-16.5,24.3-42.3,15.7-65.2S294.3,0.4,269.8,0s-46.7,14.1-56.1,36.7
		c-9.4,22.6-4.1,48.6,13.4,65.7h-39.5c5.6-7.3,8.7-16.3,8.8-25.6c0-23.6-19.1-42.7-42.7-42.7c-23.6,0-42.7,19.1-42.7,42.7
		c0,9.6,3.3,18.9,9.4,26.4c-20.2,3.7-34.9,21.3-35,41.9H34.2c-2.6,0-5,1.1-6.6,3.1c-1.6,2-2.3,4.6-1.8,7.1l15,75.1H25.7
		c-14.1,0-25.6,11.5-25.6,25.6v179.2c0,14.1,11.5,25.6,25.6,25.6h34.1v8.5c0,4.7,3.8,8.5,8.5,8.5h88.6l-8.5,17.1h-28.9
		c-4.7,0-8.5,3.8-8.5,8.5s3.8,8.5,8.5,8.5h153.6c4.7,0,8.5-3.8,8.5-8.5s-3.8-8.5-8.5-8.5h-28.9l-8.5-17.1h88.6
		c4.7,0,8.5-3.8,8.5-8.5v-41.5l52.5,6.6c3.8,12.1,15.8,19.5,28.2,17.6c12.5-1.9,21.7-12.7,21.6-25.3v-93.8
		C435.2,318.7,423.8,307.2,409.6,307.2z M452.3,250.8l-51.2-25.6v-57.7l51.2-25.6V250.8z M384,170.7v51.2h-42.7v-51.2H384z
		 M226.2,59.8c0-23.6,19.1-42.7,42.7-42.7c23.6,0,42.7,19.1,42.7,42.7c0,23.6-19.1,42.7-42.7,42.7
		C245.3,102.4,226.2,83.4,226.2,59.8z M153.7,51.3c14.1,0,25.6,11.5,25.6,25.6s-11.5,25.6-25.6,25.6c-14.1,0-25.6-11.5-25.6-25.6
		S139.5,51.3,153.7,51.3z M102.5,145.1c0-14.1,11.5-25.6,25.6-25.6h170.6c14.1,0,25.6,11.5,25.6,25.6v102.4
		c0,14.1-11.5,25.6-25.6,25.6H128.1c-14.1,0-25.6-11.5-25.6-25.6V145.1z M85.4,162.2v68.3H58.3l-13.7-68.3H85.4z M315.8,324.3v102.4
		H76.9V324.3H315.8z M225.2,494.9h-57.7l8.5-17.1h40.6L225.2,494.9z M315.8,460.8H76.9v-17.1h238.9V460.8z M332.8,348.9l51.2-6.4
		V417l-51.2-6.4V348.9z M418.1,426.7c0,4.7-3.8,8.5-8.5,8.5c-4.7,0-8.5-3.8-8.5-8.5v-93.8c0-4.7,3.8-8.5,8.5-8.5
		c4.7,0,8.5,3.8,8.5,8.5V426.7z"/>
	<path class="st3" d="M503.5,367h-34.1c-4.7,0-8.5,3.8-8.5,8.5s3.8,8.5,8.5,8.5h34.1c4.7,0,8.5-3.8,8.5-8.5S508.2,367,503.5,367z"/>
	<path class="st3" d="M452.5,326.4c0.9,3.8,4.4,6.5,8.3,6.5c0.7,0,1.4-0.1,2.1-0.3L497,324c4.5-1.2,7.3-5.8,6.1-10.3
		c-1.1-4.5-5.7-7.3-10.3-6.2l-34.1,8.5C454.2,317.2,451.4,321.8,452.5,326.4z"/>
	<path class="st3" d="M497,426.9l-34.1-8.5c-4.6-1.1-9.2,1.7-10.3,6.2c-1.1,4.5,1.6,9.2,6.1,10.3l34.1,8.5c0.7,0.2,1.4,0.3,2.1,0.3
		c4.3,0,7.9-3.2,8.5-7.5S501.2,428,497,426.9L497,426.9z"/>
</g>
</svg>
